<svg width="121" height="44" viewBox="0 0 121 44" fill="none" xmlns="http://www.w3.org/2000/svg">
<g filter="url(#filter0_d_1_1062)">
<rect x="6" y="4" width="109" height="32" rx="5" fill="url(#paint0_linear_1_1062)" shape-rendering="crispEdges"/>
<rect x="6.25" y="4.25" width="108.5" height="31.5" rx="4.75" stroke="#FFBB00" stroke-opacity="0.5" stroke-width="0.5" shape-rendering="crispEdges"/>
<g filter="url(#filter1_d_1_1062)">
<path d="M23.3288 14.9394V16.2886H24.2203H25.2119H25.3119V16.3886V21.0665V25.6445H25.6059H26H26.1V25.7445V26.1258V26.5072V26.6072H26H20H14H13.9V26.5072V26.1258V25.7445V25.6445H14H14.3941H14.6883L14.6932 21.824L14.6932 21.824L14.7008 17.9011L14.701 17.802L14.8001 17.8013L15.784 17.7936L15.7842 17.7936L16.6712 17.7891V16.5945V15.3004V15.2244L16.7445 15.2041L17.3489 15.0364C17.349 15.0364 17.3491 15.0364 17.3492 15.0364C17.6805 14.9421 19.1242 14.5354 20.5576 14.1338C21.2746 13.9317 21.928 13.748 22.4038 13.6145C22.6417 13.5478 22.8352 13.4936 22.97 13.4559L23.1266 13.4123L23.1319 13.4108C23.1566 13.4039 23.177 13.3983 23.1868 13.3958L23.1868 13.3958C23.2224 13.3869 23.253 13.3991 23.2715 13.413C23.2871 13.4248 23.2953 13.4382 23.2984 13.4437C23.3051 13.4554 23.3079 13.4659 23.3086 13.4688L23.3086 13.4689C23.3107 13.4767 23.3117 13.4839 23.3121 13.4872C23.3131 13.4954 23.3139 13.5053 23.3145 13.5153C23.3158 13.5361 23.317 13.5657 23.318 13.6026C23.3202 13.6766 23.3221 13.7833 23.3237 13.9146C23.3269 14.1773 23.3288 14.54 23.3288 14.9394ZM22.3466 14.6367C22.3226 14.6432 22.295 14.6508 22.2642 14.6593C22.141 14.6931 21.9659 14.7416 21.7552 14.8001C21.3338 14.9173 20.7703 15.0746 20.1954 15.2356C19.045 15.5577 17.8512 15.8936 17.6589 15.9505L17.6583 15.9507L17.6339 15.9578V16.8843V17.7886H18.5254H19.5169H19.6169V17.8886V21.8165V25.6445H20.9915H22.3661V20.1258C22.3661 17.886 22.3642 16.4816 22.3594 15.6375C22.357 15.2154 22.354 14.934 22.35 14.7585C22.3489 14.7096 22.3478 14.6693 22.3466 14.6367ZM15.6673 18.6838L15.6673 18.6838L15.6673 18.6838ZM15.7021 18.762C15.6885 18.7623 15.676 18.7627 15.6645 18.763C15.6635 18.8097 15.6625 18.874 15.6616 18.9545C15.6594 19.1352 15.6575 19.396 15.6559 19.7173C15.6528 20.36 15.6508 21.2446 15.6508 22.2157V25.6445H17.1525H18.6542V22.1979V18.7513H17.1703C16.7346 18.7513 16.3364 18.7532 16.0464 18.7563C15.9014 18.7579 15.7837 18.7598 15.7021 18.762ZM23.839 25.6445H24.3492V21.4479V17.2513H23.839H23.3288V21.4479V25.6445H23.839Z" fill="#FFBB00" stroke="#FFBB00" stroke-width="0.2"/>
<path d="M20.4849 18.703L20.3828 18.7051V18.603V17.8251V17.0471V16.945L20.4849 16.9471L20.8611 16.9547L20.8612 16.9547L21.2349 16.9624L21.3328 16.9644V17.0623V17.8251V18.5878V18.6858L21.2349 18.6878L20.8612 18.6954L20.8611 18.6954L20.4849 18.703Z" fill="#FFBB00" stroke="#FFBB00" stroke-width="0.2"/>
<path d="M20.4849 21.4996L20.3828 21.5017V21.3996V20.6344V19.8717V19.7717H20.4828H20.8642H21.2456H21.3462L21.3456 19.8723L21.3405 20.6274L21.3405 20.6278L21.3328 21.3854L21.3319 21.4824L21.2349 21.4844L20.8612 21.492L20.8611 21.492L20.4849 21.4996Z" fill="#FFBB00" stroke="#FFBB00" stroke-width="0.2"/>
<path d="M20.4828 24.2936H20.3828V24.1936V23.4309V22.6681V22.5681H20.4828H20.8642H21.2456H21.3456V22.6681V23.4309V24.1936V24.2936H21.2456H20.8642H20.4828Z" fill="#FFBB00" stroke="#FFBB00" stroke-width="0.2"/>
<path d="M16.7712 21.497H16.6712V21.397V20.6343V19.8715V19.7715H16.7712H17.1525H17.5339H17.6339V19.8715V20.6343V21.397V21.497H17.5339H17.1525H16.7712Z" fill="#FFBB00" stroke="#FFBB00" stroke-width="0.2"/>
<path d="M16.7712 24.2936H16.6712V24.1936V23.4309V22.6681V22.5681H16.7712H17.1525H17.5339H17.6339V22.6681V23.4309V24.1936V24.2936H17.5339H17.1525H16.7712Z" fill="#FFBB00" stroke="#FFBB00" stroke-width="0.2"/>
</g>
<g filter="url(#filter2_d_1_1062)">
<path d="M43.5753 18.1293H42.0241C41.9645 17.7978 41.8535 17.5062 41.6911 17.2543C41.5286 17.0024 41.3298 16.7886 41.0945 16.6129C40.8591 16.4373 40.5956 16.3047 40.304 16.2152C40.0156 16.1257 39.709 16.081 39.3842 16.081C38.7976 16.081 38.2723 16.2285 37.8082 16.5234C37.3475 16.8184 36.983 17.2509 36.7145 17.821C36.4493 18.3911 36.3168 19.0871 36.3168 19.9091C36.3168 20.7377 36.4493 21.437 36.7145 22.0071C36.983 22.5772 37.3492 23.008 37.8132 23.2997C38.2772 23.5914 38.7992 23.7372 39.3793 23.7372C39.7008 23.7372 40.0057 23.6941 40.294 23.608C40.5857 23.5185 40.8492 23.3875 41.0845 23.2152C41.3198 23.0429 41.5187 22.8324 41.6811 22.5838C41.8468 22.3319 41.9612 22.0436 42.0241 21.7188L43.5753 21.7237C43.4924 22.2242 43.3317 22.6849 43.093 23.1058C42.8577 23.5234 42.5545 23.8847 42.1832 24.1896C41.8153 24.4912 41.3944 24.7249 40.9205 24.8906C40.4465 25.0563 39.9295 25.1392 39.3693 25.1392C38.4877 25.1392 37.7022 24.9304 37.0128 24.5128C36.3234 24.0919 35.7798 23.4903 35.3821 22.7081C34.9877 21.9259 34.7905 20.9929 34.7905 19.9091C34.7905 18.822 34.9893 17.889 35.3871 17.1101C35.7848 16.3279 36.3284 15.728 37.0178 15.3104C37.7071 14.8894 38.491 14.679 39.3693 14.679C39.9096 14.679 40.4134 14.7569 40.8807 14.9126C41.3513 15.0651 41.7739 15.2905 42.1484 15.5888C42.523 15.8838 42.8329 16.245 43.0781 16.6726C43.3234 17.0968 43.4891 17.5824 43.5753 18.1293ZM49.5165 25.169C49.0326 25.169 48.5951 25.0795 48.204 24.9006C47.8129 24.7183 47.503 24.4548 47.2743 24.1101C47.0489 23.7654 46.9363 23.3428 46.9363 22.8423C46.9363 22.4115 47.0191 22.0568 47.1848 21.7784C47.3506 21.5 47.5743 21.2796 47.856 21.1172C48.1377 20.9548 48.4526 20.8321 48.8006 20.7493C49.1486 20.6664 49.5033 20.6035 49.8645 20.5604C50.3219 20.5073 50.6931 20.4643 50.9782 20.4311C51.2632 20.3946 51.4703 20.3366 51.5996 20.2571C51.7289 20.1776 51.7935 20.0483 51.7935 19.8693V19.8345C51.7935 19.4003 51.6709 19.0639 51.4256 18.8253C51.1837 18.5866 50.8224 18.4673 50.3418 18.4673C49.8413 18.4673 49.4469 18.5784 49.1586 18.8004C48.8735 19.0192 48.6763 19.2628 48.5669 19.5312L47.1699 19.2131C47.3356 18.7491 47.5776 18.3745 47.8958 18.0895C48.2173 17.8011 48.5868 17.5923 49.0044 17.4631C49.4221 17.3305 49.8612 17.2642 50.3219 17.2642C50.6268 17.2642 50.95 17.3007 51.2914 17.3736C51.6361 17.4432 51.9576 17.5724 52.2559 17.7614C52.5575 17.9503 52.8044 18.2204 52.9966 18.5717C53.1889 18.9197 53.285 19.3722 53.285 19.929V25H51.8333V23.956H51.7736C51.6775 24.1482 51.5333 24.3371 51.3411 24.5227C51.1489 24.7083 50.9019 24.8625 50.6003 24.9851C50.2987 25.1077 49.9374 25.169 49.5165 25.169ZM49.8397 23.9759C50.2507 23.9759 50.602 23.8946 50.8936 23.7322C51.1886 23.5698 51.4123 23.3577 51.5648 23.0959C51.7206 22.8307 51.7985 22.5473 51.7985 22.2457V21.2614C51.7454 21.3144 51.6427 21.3641 51.4902 21.4105C51.3411 21.4536 51.1704 21.4917 50.9782 21.5249C50.7859 21.5547 50.5987 21.5829 50.4164 21.6094C50.2341 21.6326 50.0816 21.6525 49.959 21.669C49.6706 21.7055 49.4071 21.7668 49.1685 21.853C48.9332 21.9392 48.7443 22.0634 48.6017 22.2259C48.4625 22.3849 48.3929 22.5971 48.3929 22.8622C48.3929 23.2301 48.5288 23.5085 48.8006 23.6974C49.0724 23.883 49.4187 23.9759 49.8397 23.9759ZM57.2649 25V17.3636H58.6918V18.6065H58.7862C58.9453 18.1856 59.2055 17.8575 59.5668 17.6222C59.928 17.3835 60.3606 17.2642 60.8643 17.2642C61.3748 17.2642 61.8023 17.3835 62.147 17.6222C62.495 17.8608 62.7519 18.1889 62.9176 18.6065H62.9972C63.1795 18.1989 63.4695 17.8741 63.8672 17.6321C64.2649 17.3868 64.7389 17.2642 65.2891 17.2642C65.9818 17.2642 66.5469 17.4813 66.9844 17.9155C67.4252 18.3497 67.6456 19.0043 67.6456 19.8793V25H66.1591V20.0185C66.1591 19.5014 66.0182 19.1269 65.7365 18.8949C65.4548 18.6629 65.1184 18.5469 64.7273 18.5469C64.2434 18.5469 63.8672 18.696 63.5987 18.9943C63.3303 19.2893 63.196 19.6688 63.196 20.1328V25H61.7145V19.924C61.7145 19.5097 61.5852 19.1766 61.3267 18.9247C61.0682 18.6728 60.7318 18.5469 60.3175 18.5469C60.0357 18.5469 59.7756 18.6214 59.5369 18.7706C59.3016 18.9164 59.111 19.1203 58.9652 19.3821C58.8227 19.6439 58.7514 19.9472 58.7514 20.2919V25H57.2649ZM71.638 27.8636V17.3636H73.0897V18.6016H73.214C73.3001 18.4425 73.4244 18.2585 73.5868 18.0497C73.7492 17.8409 73.9746 17.6586 74.263 17.5028C74.5513 17.3438 74.9325 17.2642 75.4064 17.2642C76.0229 17.2642 76.5731 17.42 77.057 17.7315C77.5409 18.0431 77.9204 18.4922 78.1955 19.0788C78.4739 19.6655 78.6131 20.3714 78.6131 21.1967C78.6131 22.022 78.4756 22.7296 78.2005 23.3196C77.9254 23.9062 77.5475 24.3587 77.0669 24.6768C76.5864 24.9917 76.0378 25.1491 75.4213 25.1491C74.9573 25.1491 74.5778 25.0713 74.2828 24.9155C73.9912 24.7597 73.7625 24.5774 73.5968 24.3686C73.431 24.1598 73.3034 23.9742 73.214 23.8118H73.1245V27.8636H71.638ZM73.0946 21.1818C73.0946 21.7187 73.1725 22.1894 73.3283 22.5938C73.4841 22.9981 73.7095 23.3146 74.0044 23.5433C74.2994 23.7687 74.6607 23.8814 75.0882 23.8814C75.5324 23.8814 75.9036 23.7637 76.2019 23.5284C76.5002 23.2898 76.7256 22.9666 76.878 22.5589C77.0338 22.1513 77.1117 21.6922 77.1117 21.1818C77.1117 20.678 77.0355 20.2256 76.883 19.8246C76.7338 19.4235 76.5085 19.107 76.2069 18.875C75.9086 18.643 75.5357 18.527 75.0882 18.527C74.6574 18.527 74.2928 18.638 73.9945 18.8601C73.6995 19.0821 73.4758 19.392 73.3233 19.7898C73.1709 20.1875 73.0946 20.6515 73.0946 21.1818ZM87.1159 21.8331V17.3636H88.6074V25H87.1458V23.6776H87.0662C86.8906 24.0852 86.6088 24.425 86.2211 24.6967C85.8366 24.9652 85.3577 25.0994 84.7843 25.0994C84.2937 25.0994 83.8596 24.9917 83.4817 24.7763C83.1072 24.5575 82.8122 24.2344 82.5968 23.8068C82.3846 23.3793 82.2786 22.8506 82.2786 22.2209V17.3636H83.7651V22.0419C83.7651 22.5623 83.9093 22.9766 84.1976 23.2848C84.486 23.593 84.8605 23.7472 85.3212 23.7472C85.5996 23.7472 85.8764 23.6776 86.1515 23.5384C86.4299 23.3991 86.6602 23.1887 86.8425 22.907C87.0281 22.6252 87.1193 22.2673 87.1159 21.8331ZM98.3271 19.228L96.9798 19.4666C96.9234 19.2943 96.8339 19.1302 96.7113 18.9744C96.592 18.8187 96.4296 18.6911 96.2241 18.5916C96.0186 18.4922 95.7617 18.4425 95.4535 18.4425C95.0326 18.4425 94.6812 18.5369 94.3995 18.7259C94.1178 18.9115 93.9769 19.1518 93.9769 19.4467C93.9769 19.7019 94.0714 19.9074 94.2603 20.0632C94.4492 20.219 94.7541 20.3466 95.1751 20.446L96.3881 20.7244C97.0908 20.8868 97.6145 21.1371 97.9592 21.4751C98.3039 21.8132 98.4762 22.2524 98.4762 22.7926C98.4762 23.25 98.3436 23.6577 98.0785 24.0156C97.8166 24.3703 97.4504 24.6487 96.9798 24.8509C96.5124 25.053 95.9705 25.1541 95.354 25.1541C94.4989 25.1541 93.8013 24.9718 93.261 24.6072C92.7208 24.2393 92.3893 23.7173 92.2667 23.0412L93.7035 22.8224C93.793 23.197 93.9769 23.4804 94.2553 23.6726C94.5337 23.8615 94.8967 23.956 95.3441 23.956C95.8313 23.956 96.2208 23.8549 96.5124 23.6527C96.8041 23.4472 96.9499 23.197 96.9499 22.902C96.9499 22.6634 96.8604 22.4628 96.6815 22.3004C96.5058 22.138 96.2357 22.0154 95.8711 21.9325L94.5785 21.6491C93.8659 21.4867 93.3389 21.2282 92.9975 20.8736C92.6594 20.5189 92.4904 20.0698 92.4904 19.5263C92.4904 19.0755 92.6164 18.6811 92.8683 18.343C93.1201 18.005 93.4682 17.7415 93.9123 17.5526C94.3564 17.3603 94.8652 17.2642 95.4386 17.2642C96.2638 17.2642 96.9135 17.4432 97.3874 17.8011C97.8614 18.1558 98.1746 18.6314 98.3271 19.228Z" fill="#FFBB00"/>
</g>
</g>
<defs>
<filter id="filter0_d_1_1062" x="0" y="0" width="121" height="44" filterUnits="userSpaceOnUse" color-interpolation-filters="sRGB">
<feFlood flood-opacity="0" result="BackgroundImageFix"/>
<feColorMatrix in="SourceAlpha" type="matrix" values="0 0 0 0 0 0 0 0 0 0 0 0 0 0 0 0 0 0 127 0" result="hardAlpha"/>
<feOffset dy="2"/>
<feGaussianBlur stdDeviation="3"/>
<feComposite in2="hardAlpha" operator="out"/>
<feColorMatrix type="matrix" values="0 0 0 0 0 0 0 0 0 0 0 0 0 0 0 0 0 0 0.08 0"/>
<feBlend mode="normal" in2="BackgroundImageFix" result="effect1_dropShadow_1_1062"/>
<feBlend mode="normal" in="SourceGraphic" in2="effect1_dropShadow_1_1062" result="shape"/>
</filter>
<filter id="filter1_d_1_1062" x="10.8" y="11.2927" width="18.4" height="19.4145" filterUnits="userSpaceOnUse" color-interpolation-filters="sRGB">
<feFlood flood-opacity="0" result="BackgroundImageFix"/>
<feColorMatrix in="SourceAlpha" type="matrix" values="0 0 0 0 0 0 0 0 0 0 0 0 0 0 0 0 0 0 127 0" result="hardAlpha"/>
<feOffset dy="1"/>
<feGaussianBlur stdDeviation="1.5"/>
<feComposite in2="hardAlpha" operator="out"/>
<feColorMatrix type="matrix" values="0 0 0 0 1 0 0 0 0 0.815755 0 0 0 0 0.309082 0 0 0 0.6 0"/>
<feBlend mode="normal" in2="BackgroundImageFix" result="effect1_dropShadow_1_1062"/>
<feBlend mode="normal" in="SourceGraphic" in2="effect1_dropShadow_1_1062" result="shape"/>
</filter>
<filter id="filter2_d_1_1062" x="31.7905" y="12.679" width="69.6857" height="19.1847" filterUnits="userSpaceOnUse" color-interpolation-filters="sRGB">
<feFlood flood-opacity="0" result="BackgroundImageFix"/>
<feColorMatrix in="SourceAlpha" type="matrix" values="0 0 0 0 0 0 0 0 0 0 0 0 0 0 0 0 0 0 127 0" result="hardAlpha"/>
<feOffset dy="1"/>
<feGaussianBlur stdDeviation="1.5"/>
<feComposite in2="hardAlpha" operator="out"/>
<feColorMatrix type="matrix" values="0 0 0 0 1 0 0 0 0 0.815755 0 0 0 0 0.309082 0 0 0 0.6 0"/>
<feBlend mode="normal" in2="BackgroundImageFix" result="effect1_dropShadow_1_1062"/>
<feBlend mode="normal" in="SourceGraphic" in2="effect1_dropShadow_1_1062" result="shape"/>
</filter>
<linearGradient id="paint0_linear_1_1062" x1="35.1811" y1="4" x2="77.1408" y2="29.8967" gradientUnits="userSpaceOnUse">
<stop stop-color="#263238"/>
<stop offset="1" stop-color="#2F4B59"/>
</linearGradient>
</defs>
</svg>
