<svg width="146" height="44" viewBox="0 0 146 44" fill="none" xmlns="http://www.w3.org/2000/svg">
<g filter="url(#filter0_d_1_1071)">
<rect x="6" y="4" width="133.833" height="32" rx="5" fill="url(#paint0_linear_1_1071)" shape-rendering="crispEdges"/>
<rect x="6.25" y="4.25" width="133.333" height="31.5" rx="4.75" stroke="#FFBB00" stroke-opacity="0.5" stroke-width="0.5" shape-rendering="crispEdges"/>
<g filter="url(#filter1_d_1_1071)">
<path d="M26.8333 21.4583C26.8333 20.5483 26.2325 19.7842 25.4042 19.5217C25.5675 19.23 25.6667 18.8975 25.6667 18.5417C25.6667 17.6317 25.0658 16.8675 24.2375 16.605C24.4008 16.3133 24.5 15.9808 24.5 15.625C24.5 14.4992 23.5842 13.5833 22.4583 13.5833H18.375C17.2492 13.5833 16.3333 14.4992 16.3333 15.625C16.3333 15.9808 16.4325 16.3133 16.5958 16.605C15.7733 16.8675 15.1667 17.6317 15.1667 18.5417C15.1667 18.8975 15.2658 19.23 15.4292 19.5217C14.6067 19.7842 14 20.5483 14 21.4583C14 22.1933 14.3908 22.8233 14.9742 23.185C14.7292 23.5175 14.5833 23.9317 14.5833 24.375C14.5833 25.5008 15.4992 26.4167 16.625 26.4167H24.2083C25.3342 26.4167 26.25 25.5008 26.25 24.375C26.25 23.9317 26.1042 23.5175 25.8592 23.185C26.4425 22.8233 26.8333 22.1933 26.8333 21.4583ZM18.375 14.75H22.4583C22.9425 14.75 23.3333 15.1408 23.3333 15.625C23.3333 16.1092 22.9425 16.5 22.4583 16.5H18.375C17.8908 16.5 17.5 16.1092 17.5 15.625C17.5 15.1408 17.8908 14.75 18.375 14.75ZM17.2083 17.6667H23.625C24.1092 17.6667 24.5 18.0575 24.5 18.5417C24.5 19.0258 24.1092 19.4167 23.625 19.4167H17.2083C16.7242 19.4167 16.3333 19.0258 16.3333 18.5417C16.3333 18.0575 16.7242 17.6667 17.2083 17.6667ZM15.75 24.375C15.75 23.8908 16.1408 23.5 16.625 23.5H18.6667V25.25H16.625C16.1408 25.25 15.75 24.8592 15.75 24.375ZM24.2083 25.25H22.1667V23.5H24.2083C24.6925 23.5 25.0833 23.8908 25.0833 24.375C25.0833 24.8592 24.6925 25.25 24.2083 25.25ZM24.7917 22.3333H22.0617C21.8167 21.6567 21.175 21.1667 20.4167 21.1667C19.6583 21.1667 19.0167 21.6567 18.7717 22.3333H16.0417C15.5575 22.3333 15.1667 21.9425 15.1667 21.4583C15.1667 20.9742 15.5575 20.5833 16.0417 20.5833H24.7917C25.2758 20.5833 25.6667 20.9742 25.6667 21.4583C25.6667 21.9425 25.2758 22.3333 24.7917 22.3333Z" fill="#FFBB00"/>
</g>
<g filter="url(#filter2_d_1_1071)">
<path d="M35.952 25.5V15.3182H37.4882V19.7429H42.5642V15.3182H44.1054V25.5H42.5642V21.0604H37.4882V25.5H35.952ZM51.4399 25.6541C50.724 25.6541 50.0992 25.4901 49.5656 25.1619C49.032 24.8338 48.6177 24.3748 48.3227 23.7848C48.0277 23.1948 47.8802 22.5054 47.8802 21.7166C47.8802 20.9245 48.0277 20.2318 48.3227 19.6385C48.6177 19.0452 49.032 18.5845 49.5656 18.2564C50.0992 17.9283 50.724 17.7642 51.4399 17.7642C52.1558 17.7642 52.7805 17.9283 53.3142 18.2564C53.8478 18.5845 54.2621 19.0452 54.5571 19.6385C54.852 20.2318 54.9995 20.9245 54.9995 21.7166C54.9995 22.5054 54.852 23.1948 54.5571 23.7848C54.2621 24.3748 53.8478 24.8338 53.3142 25.1619C52.7805 25.4901 52.1558 25.6541 51.4399 25.6541ZM51.4448 24.4062C51.9089 24.4062 52.2933 24.2836 52.5983 24.0384C52.9032 23.7931 53.1286 23.4666 53.2744 23.0589C53.4235 22.6513 53.4981 22.2022 53.4981 21.7116C53.4981 21.2244 53.4235 20.777 53.2744 20.3693C53.1286 19.9583 52.9032 19.6286 52.5983 19.38C52.2933 19.1314 51.9089 19.0071 51.4448 19.0071C50.9775 19.0071 50.5897 19.1314 50.2815 19.38C49.9766 19.6286 49.7495 19.9583 49.6004 20.3693C49.4546 20.777 49.3816 21.2244 49.3816 21.7116C49.3816 22.2022 49.4546 22.6513 49.6004 23.0589C49.7495 23.4666 49.9766 23.7931 50.2815 24.0384C50.5897 24.2836 50.9775 24.4062 51.4448 24.4062ZM60.1453 20.9659V25.5H58.6588V17.8636H60.0857V19.1065H60.1801C60.3558 18.7022 60.6309 18.3774 61.0054 18.1321C61.3832 17.8868 61.8589 17.7642 62.4322 17.7642C62.9526 17.7642 63.4083 17.8736 63.7994 18.0923C64.1905 18.3078 64.4938 18.6293 64.7092 19.0568C64.9247 19.4844 65.0324 20.013 65.0324 20.6428V25.5H63.5459V20.8217C63.5459 20.2682 63.4017 19.8357 63.1134 19.5241C62.825 19.2093 62.4289 19.0518 61.9251 19.0518C61.5804 19.0518 61.2739 19.1264 61.0054 19.2756C60.7402 19.4247 60.5298 19.6435 60.374 19.9318C60.2215 20.2169 60.1453 20.5616 60.1453 20.9659ZM72.3172 25.6541C71.5648 25.6541 70.9169 25.4934 70.3733 25.1719C69.833 24.8471 69.4154 24.3913 69.1205 23.8047C68.8288 23.2147 68.683 22.5237 68.683 21.7315C68.683 20.9493 68.8288 20.2599 69.1205 19.6634C69.4154 19.0668 69.8264 18.6011 70.3534 18.2663C70.8837 17.9316 71.5035 17.7642 72.2128 17.7642C72.6437 17.7642 73.0613 17.8355 73.4656 17.978C73.87 18.1205 74.2329 18.3442 74.5544 18.6491C74.8759 18.9541 75.1294 19.3501 75.3151 19.8374C75.5007 20.3213 75.5935 20.9096 75.5935 21.6023V22.1293H69.5232V21.0156H74.1368C74.1368 20.6245 74.0572 20.2782 73.8982 19.9766C73.7391 19.6716 73.5153 19.4313 73.227 19.2557C72.9419 19.08 72.6072 18.9922 72.2227 18.9922C71.8051 18.9922 71.4405 19.0949 71.129 19.3004C70.8207 19.5026 70.5821 19.7678 70.4131 20.0959C70.2473 20.4207 70.1645 20.7737 70.1645 21.1548V22.0249C70.1645 22.5353 70.254 22.9695 70.433 23.3274C70.6152 23.6854 70.8688 23.9588 71.1936 24.1477C71.5184 24.3333 71.8979 24.4261 72.3321 24.4261C72.6138 24.4261 72.8707 24.3864 73.1027 24.3068C73.3347 24.224 73.5352 24.1013 73.7043 23.9389C73.8733 23.7765 74.0026 23.576 74.092 23.3374L75.499 23.5909C75.3863 24.0052 75.1841 24.3681 74.8925 24.6797C74.6041 24.9879 74.2412 25.2282 73.8037 25.4006C73.3695 25.5696 72.874 25.6541 72.3172 25.6541ZM79.9637 28.3636C79.7416 28.3636 79.5394 28.3454 79.3571 28.3089C79.1748 28.2758 79.039 28.2393 78.9495 28.1996L79.3074 26.9815C79.5792 27.0545 79.8212 27.0859 80.0333 27.076C80.2454 27.0661 80.4327 26.9865 80.5951 26.8374C80.7608 26.6882 80.9066 26.4446 81.0326 26.1065L81.2165 25.5994L78.4225 17.8636H80.0134L81.9473 23.7898H82.0269L83.9608 17.8636H85.5567L82.4097 26.5192C82.2639 26.9169 82.0783 27.2533 81.8529 27.5284C81.6275 27.8068 81.359 28.0156 81.0475 28.1548C80.7359 28.294 80.3747 28.3636 79.9637 28.3636ZM90.3209 22.9098L90.311 21.0952H90.5695L93.6121 17.8636H95.3919L91.9218 21.5426H91.6881L90.3209 22.9098ZM88.9537 25.5V15.3182H90.4402V25.5H88.9537ZM93.7762 25.5L91.0418 21.8707L92.0659 20.8317L95.6007 25.5H93.7762ZM101.649 25.6541C100.933 25.6541 100.308 25.4901 99.7746 25.1619C99.241 24.8338 98.8267 24.3748 98.5317 23.7848C98.2367 23.1948 98.0892 22.5054 98.0892 21.7166C98.0892 20.9245 98.2367 20.2318 98.5317 19.6385C98.8267 19.0452 99.241 18.5845 99.7746 18.2564C100.308 17.9283 100.933 17.7642 101.649 17.7642C102.365 17.7642 102.99 17.9283 103.523 18.2564C104.057 18.5845 104.471 19.0452 104.766 19.6385C105.061 20.2318 105.209 20.9245 105.209 21.7166C105.209 22.5054 105.061 23.1948 104.766 23.7848C104.471 24.3748 104.057 24.8338 103.523 25.1619C102.99 25.4901 102.365 25.6541 101.649 25.6541ZM101.654 24.4062C102.118 24.4062 102.502 24.2836 102.807 24.0384C103.112 23.7931 103.338 23.4666 103.483 23.0589C103.633 22.6513 103.707 22.2022 103.707 21.7116C103.707 21.2244 103.633 20.777 103.483 20.3693C103.338 19.9583 103.112 19.6286 102.807 19.38C102.502 19.1314 102.118 19.0071 101.654 19.0071C101.187 19.0071 100.799 19.1314 100.49 19.38C100.186 19.6286 99.9585 19.9583 99.8094 20.3693C99.6635 20.777 99.5906 21.2244 99.5906 21.7116C99.5906 22.2022 99.6635 22.6513 99.8094 23.0589C99.9585 23.4666 100.186 23.7931 100.49 24.0384C100.799 24.2836 101.187 24.4062 101.654 24.4062ZM108.868 25.5V17.8636H110.295V19.1065H110.389C110.548 18.6856 110.808 18.3575 111.17 18.1222C111.531 17.8835 111.963 17.7642 112.467 17.7642C112.978 17.7642 113.405 17.8835 113.75 18.1222C114.098 18.3608 114.355 18.6889 114.52 19.1065H114.6C114.782 18.6989 115.072 18.3741 115.47 18.1321C115.868 17.8868 116.342 17.7642 116.892 17.7642C117.585 17.7642 118.15 17.9813 118.587 18.4155C119.028 18.8497 119.248 19.5043 119.248 20.3793V25.5H117.762V20.5185C117.762 20.0014 117.621 19.6269 117.339 19.3949C117.058 19.1629 116.721 19.0469 116.33 19.0469C115.846 19.0469 115.47 19.196 115.202 19.4943C114.933 19.7893 114.799 20.1688 114.799 20.6328V25.5H113.317V20.424C113.317 20.0097 113.188 19.6766 112.93 19.4247C112.671 19.1728 112.335 19.0469 111.92 19.0469C111.639 19.0469 111.378 19.1214 111.14 19.2706C110.904 19.4164 110.714 19.6203 110.568 19.8821C110.426 20.1439 110.354 20.4472 110.354 20.7919V25.5H108.868ZM123.36 25.5V15.3182H124.847V19.1016H124.936C125.022 18.9425 125.147 18.7585 125.309 18.5497C125.471 18.3409 125.697 18.1586 125.985 18.0028C126.274 17.8438 126.655 17.7642 127.129 17.7642C127.745 17.7642 128.295 17.92 128.779 18.2315C129.263 18.5431 129.643 18.9922 129.918 19.5788C130.196 20.1655 130.335 20.8714 130.335 21.6967C130.335 22.522 130.198 23.2296 129.923 23.8196C129.648 24.4062 129.27 24.8587 128.789 25.1768C128.309 25.4917 127.76 25.6491 127.144 25.6491C126.68 25.6491 126.3 25.5713 126.005 25.4155C125.713 25.2597 125.485 25.0774 125.319 24.8686C125.153 24.6598 125.026 24.4742 124.936 24.3118H124.812V25.5H123.36ZM124.817 21.6818C124.817 22.2187 124.895 22.6894 125.05 23.0938C125.206 23.4981 125.432 23.8146 125.727 24.0433C126.022 24.2687 126.383 24.3814 126.81 24.3814C127.255 24.3814 127.626 24.2637 127.924 24.0284C128.222 23.7898 128.448 23.4666 128.6 23.0589C128.756 22.6513 128.834 22.1922 128.834 21.6818C128.834 21.178 128.758 20.7256 128.605 20.3246C128.456 19.9235 128.231 19.607 127.929 19.375C127.631 19.143 127.258 19.027 126.81 19.027C126.38 19.027 126.015 19.138 125.717 19.3601C125.422 19.5821 125.198 19.892 125.046 20.2898C124.893 20.6875 124.817 21.1515 124.817 21.6818Z" fill="#FFBB00"/>
</g>
</g>
<defs>
<filter id="filter0_d_1_1071" x="0" y="0" width="145.833" height="44" filterUnits="userSpaceOnUse" color-interpolation-filters="sRGB">
<feFlood flood-opacity="0" result="BackgroundImageFix"/>
<feColorMatrix in="SourceAlpha" type="matrix" values="0 0 0 0 0 0 0 0 0 0 0 0 0 0 0 0 0 0 127 0" result="hardAlpha"/>
<feOffset dy="2"/>
<feGaussianBlur stdDeviation="3"/>
<feComposite in2="hardAlpha" operator="out"/>
<feColorMatrix type="matrix" values="0 0 0 0 0 0 0 0 0 0 0 0 0 0 0 0 0 0 0.08 0"/>
<feBlend mode="normal" in2="BackgroundImageFix" result="effect1_dropShadow_1_1071"/>
<feBlend mode="normal" in="SourceGraphic" in2="effect1_dropShadow_1_1071" result="shape"/>
</filter>
<filter id="filter1_d_1_1071" x="11" y="11.5833" width="18.8333" height="18.8333" filterUnits="userSpaceOnUse" color-interpolation-filters="sRGB">
<feFlood flood-opacity="0" result="BackgroundImageFix"/>
<feColorMatrix in="SourceAlpha" type="matrix" values="0 0 0 0 0 0 0 0 0 0 0 0 0 0 0 0 0 0 127 0" result="hardAlpha"/>
<feOffset dy="1"/>
<feGaussianBlur stdDeviation="1.5"/>
<feComposite in2="hardAlpha" operator="out"/>
<feColorMatrix type="matrix" values="0 0 0 0 1 0 0 0 0 0.815755 0 0 0 0 0.309082 0 0 0 0.6 0"/>
<feBlend mode="normal" in2="BackgroundImageFix" result="effect1_dropShadow_1_1071"/>
<feBlend mode="normal" in="SourceGraphic" in2="effect1_dropShadow_1_1071" result="shape"/>
</filter>
<filter id="filter2_d_1_1071" x="32.952" y="13.3182" width="100.383" height="19.0455" filterUnits="userSpaceOnUse" color-interpolation-filters="sRGB">
<feFlood flood-opacity="0" result="BackgroundImageFix"/>
<feColorMatrix in="SourceAlpha" type="matrix" values="0 0 0 0 0 0 0 0 0 0 0 0 0 0 0 0 0 0 127 0" result="hardAlpha"/>
<feOffset dy="1"/>
<feGaussianBlur stdDeviation="1.5"/>
<feComposite in2="hardAlpha" operator="out"/>
<feColorMatrix type="matrix" values="0 0 0 0 1 0 0 0 0 0.815755 0 0 0 0 0.309082 0 0 0 0.6 0"/>
<feBlend mode="normal" in2="BackgroundImageFix" result="effect1_dropShadow_1_1071"/>
<feBlend mode="normal" in="SourceGraphic" in2="effect1_dropShadow_1_1071" result="shape"/>
</filter>
<linearGradient id="paint0_linear_1_1071" x1="41.8294" y1="4" x2="87.0215" y2="38.2463" gradientUnits="userSpaceOnUse">
<stop stop-color="#263238"/>
<stop offset="1" stop-color="#2F4B59"/>
</linearGradient>
</defs>
</svg>
