<svg width="121" height="44" viewBox="0 0 121 44" fill="none" xmlns="http://www.w3.org/2000/svg">
<g filter="url(#filter0_d_1_1079)">
<rect x="6" y="4" width="109" height="32" rx="5" fill="url(#paint0_linear_1_1079)" shape-rendering="crispEdges"/>
<rect x="6.25" y="4.25" width="108.5" height="31.5" rx="4.75" stroke="#FFBB00" stroke-opacity="0.5" stroke-width="0.5" shape-rendering="crispEdges"/>
<g filter="url(#filter1_d_1_1079)">
<path d="M16.6247 14C16.524 14.0001 16.4251 14.0285 16.3384 14.0823C16.2518 14.1362 16.1805 14.2135 16.132 14.3061L14.0695 18.2404C14.0152 18.3442 13.9918 18.4627 14.0025 18.5806C14.0132 18.6984 14.0575 18.8102 14.1295 18.9014L19.5669 25.7864C19.6197 25.8532 19.6858 25.907 19.7607 25.9439C19.8356 25.9809 19.9173 26 20 26C20.0827 26 20.1644 25.9809 20.2393 25.9439C20.3142 25.907 20.3803 25.8532 20.4331 25.7864L25.8705 18.9014C25.9425 18.8102 25.9868 18.6984 25.9975 18.5806C26.0082 18.4627 25.9848 18.3442 25.9305 18.2404L23.868 14.3061C23.8195 14.2133 23.7481 14.136 23.6612 14.0821C23.5744 14.0283 23.4754 13.9999 23.3745 14H16.6247ZM15.6167 17.7376L16.957 15.1803H18.0819L17.2284 17.7376H15.6167ZM17.1077 18.9179L18.5544 22.6539L15.6032 18.9179H17.1077ZM19.9914 23.2307L18.3219 18.9179H21.6113L19.9914 23.2307ZM18.4209 17.7376L19.2736 15.1803H20.7324L21.6301 17.7376H18.4209ZM22.8293 17.7376L21.9316 15.1803H23.0415L24.3825 17.7376H22.8293ZM22.8203 18.9179H24.3953L21.3916 22.7216L22.8203 18.9179Z" fill="#FFBB00"/>
</g>
<g filter="url(#filter2_d_1_1079)">
<path d="M35.1186 25V14.8182H38.7479C39.54 14.8182 40.1963 14.9624 40.7166 15.2507C41.237 15.5391 41.6264 15.9335 41.8849 16.4339C42.1435 16.9311 42.2727 17.4912 42.2727 18.1143C42.2727 18.7408 42.1418 19.3042 41.88 19.8047C41.6214 20.3018 41.2304 20.6963 40.7067 20.9879C40.1863 21.2763 39.5317 21.4205 38.7429 21.4205H36.2472V20.1179H38.6037C39.1042 20.1179 39.5102 20.0317 39.8217 19.8594C40.1333 19.6837 40.362 19.4451 40.5078 19.1435C40.6536 18.8419 40.7266 18.4988 40.7266 18.1143C40.7266 17.7299 40.6536 17.3885 40.5078 17.0902C40.362 16.7919 40.1316 16.5582 39.8168 16.3892C39.5052 16.2202 39.0942 16.1357 38.5838 16.1357H36.6548V25H35.1186ZM47.4409 14.8182V25H45.9544V14.8182H47.4409ZM53.663 25.169C53.1791 25.169 52.7416 25.0795 52.3505 24.9006C51.9594 24.7183 51.6495 24.4548 51.4208 24.1101C51.1954 23.7654 51.0827 23.3428 51.0827 22.8423C51.0827 22.4115 51.1656 22.0568 51.3313 21.7784C51.497 21.5 51.7208 21.2796 52.0025 21.1172C52.2842 20.9548 52.5991 20.8321 52.9471 20.7493C53.2951 20.6664 53.6497 20.6035 54.011 20.5604C54.4684 20.5073 54.8396 20.4643 55.1246 20.4311C55.4097 20.3946 55.6168 20.3366 55.7461 20.2571C55.8754 20.1776 55.94 20.0483 55.94 19.8693V19.8345C55.94 19.4003 55.8174 19.0639 55.5721 18.8253C55.3301 18.5866 54.9689 18.4673 54.4883 18.4673C53.9878 18.4673 53.5934 18.5784 53.305 18.8004C53.02 19.0192 52.8228 19.2628 52.7134 19.5312L51.3164 19.2131C51.4821 18.7491 51.7241 18.3745 52.0423 18.0895C52.3638 17.8011 52.7333 17.5923 53.1509 17.4631C53.5685 17.3305 54.0077 17.2642 54.4684 17.2642C54.7733 17.2642 55.0965 17.3007 55.4379 17.3736C55.7826 17.4432 56.104 17.5724 56.4023 17.7614C56.704 17.9503 56.9509 18.2204 57.1431 18.5717C57.3353 18.9197 57.4315 19.3722 57.4315 19.929V25H55.9798V23.956H55.9201C55.824 24.1482 55.6798 24.3371 55.4876 24.5227C55.2953 24.7083 55.0484 24.8625 54.7468 24.9851C54.4452 25.1077 54.0839 25.169 53.663 25.169ZM53.9862 23.9759C54.3971 23.9759 54.7485 23.8946 55.0401 23.7322C55.3351 23.5698 55.5588 23.3577 55.7113 23.0959C55.8671 22.8307 55.945 22.5473 55.945 22.2457V21.2614C55.8919 21.3144 55.7892 21.3641 55.6367 21.4105C55.4876 21.4536 55.3169 21.4917 55.1246 21.5249C54.9324 21.5547 54.7451 21.5829 54.5629 21.6094C54.3806 21.6326 54.2281 21.6525 54.1055 21.669C53.8171 21.7055 53.5536 21.7668 53.315 21.853C53.0797 21.9392 52.8907 22.0634 52.7482 22.2259C52.609 22.3849 52.5394 22.5971 52.5394 22.8622C52.5394 23.2301 52.6753 23.5085 52.9471 23.6974C53.2189 23.883 53.5652 23.9759 53.9862 23.9759ZM64.976 17.3636V18.5568H60.8049V17.3636H64.976ZM61.9235 15.5341H63.41V22.7578C63.41 23.0462 63.4531 23.2633 63.5392 23.4091C63.6254 23.5516 63.7364 23.6494 63.8723 23.7024C64.0115 23.7521 64.1623 23.777 64.3248 23.777C64.4441 23.777 64.5485 23.7687 64.638 23.7521C64.7275 23.7356 64.7971 23.7223 64.8468 23.7124L65.1152 24.9403C65.0291 24.9735 64.9064 25.0066 64.7473 25.0398C64.5882 25.0762 64.3894 25.0961 64.1507 25.0994C63.7596 25.1061 63.3951 25.0365 63.057 24.8906C62.7189 24.7448 62.4455 24.5194 62.2367 24.2145C62.0279 23.9096 61.9235 23.5268 61.9235 23.0661V15.5341ZM68.6204 25V17.3636H70.1069V25H68.6204ZM69.3711 16.1854C69.1126 16.1854 68.8905 16.0992 68.7049 15.9268C68.5226 15.7512 68.4315 15.5424 68.4315 15.3004C68.4315 15.0552 68.5226 14.8464 68.7049 14.674C68.8905 14.4983 69.1126 14.4105 69.3711 14.4105C69.6296 14.4105 69.85 14.4983 70.0323 14.674C70.2179 14.8464 70.3107 15.0552 70.3107 15.3004C70.3107 15.5424 70.2179 15.7512 70.0323 15.9268C69.85 16.0992 69.6296 16.1854 69.3711 16.1854ZM75.5932 20.4659V25H74.1067V17.3636H75.5336V18.6065H75.628C75.8037 18.2022 76.0788 17.8774 76.4533 17.6321C76.8311 17.3868 77.3068 17.2642 77.8801 17.2642C78.4005 17.2642 78.8562 17.3736 79.2473 17.5923C79.6384 17.8078 79.9417 18.1293 80.1571 18.5568C80.3726 18.9844 80.4803 19.513 80.4803 20.1428V25H78.9938V20.3217C78.9938 19.7682 78.8496 19.3357 78.5613 19.0241C78.2729 18.7093 77.8768 18.5518 77.373 18.5518C77.0283 18.5518 76.7218 18.6264 76.4533 18.7756C76.1882 18.9247 75.9777 19.1435 75.8219 19.4318C75.6694 19.7169 75.5932 20.0616 75.5932 20.4659ZM89.3113 21.8331V17.3636H90.8027V25H89.3411V23.6776H89.2615C89.0859 24.0852 88.8042 24.425 88.4164 24.6967C88.0319 24.9652 87.553 25.0994 86.9796 25.0994C86.4891 25.0994 86.0549 24.9917 85.677 24.7763C85.3025 24.5575 85.0075 24.2344 84.7921 23.8068C84.58 23.3793 84.4739 22.8506 84.4739 22.2209V17.3636H85.9604V22.0419C85.9604 22.5623 86.1046 22.9766 86.3929 23.2848C86.6813 23.593 87.0558 23.7472 87.5165 23.7472C87.7949 23.7472 88.0717 23.6776 88.3468 23.5384C88.6252 23.3991 88.8555 23.1887 89.0378 22.907C89.2234 22.6252 89.3146 22.2673 89.3113 21.8331ZM94.8001 25V17.3636H96.2269V18.6065H96.3214C96.4805 18.1856 96.7406 17.8575 97.1019 17.6222C97.4632 17.3835 97.8957 17.2642 98.3995 17.2642C98.9099 17.2642 99.3375 17.3835 99.6822 17.6222C100.03 17.8608 100.287 18.1889 100.453 18.6065H100.532C100.715 18.1989 101.005 17.8741 101.402 17.6321C101.8 17.3868 102.274 17.2642 102.824 17.2642C103.517 17.2642 104.082 17.4813 104.52 17.9155C104.96 18.3497 105.181 19.0043 105.181 19.8793V25H103.694V20.0185C103.694 19.5014 103.553 19.1269 103.272 18.8949C102.99 18.6629 102.654 18.5469 102.262 18.5469C101.779 18.5469 101.402 18.696 101.134 18.9943C100.865 19.2893 100.731 19.6688 100.731 20.1328V25H99.2496V19.924C99.2496 19.5097 99.1204 19.1766 98.8619 18.9247C98.6033 18.6728 98.2669 18.5469 97.8526 18.5469C97.5709 18.5469 97.3107 18.6214 97.0721 18.7706C96.8368 18.9164 96.6462 19.1203 96.5004 19.3821C96.3578 19.6439 96.2866 19.9472 96.2866 20.2919V25H94.8001Z" fill="#FFBB00"/>
</g>
</g>
<defs>
<filter id="filter0_d_1_1079" x="0" y="0" width="121" height="44" filterUnits="userSpaceOnUse" color-interpolation-filters="sRGB">
<feFlood flood-opacity="0" result="BackgroundImageFix"/>
<feColorMatrix in="SourceAlpha" type="matrix" values="0 0 0 0 0 0 0 0 0 0 0 0 0 0 0 0 0 0 127 0" result="hardAlpha"/>
<feOffset dy="2"/>
<feGaussianBlur stdDeviation="3"/>
<feComposite in2="hardAlpha" operator="out"/>
<feColorMatrix type="matrix" values="0 0 0 0 0 0 0 0 0 0 0 0 0 0 0 0 0 0 0.08 0"/>
<feBlend mode="normal" in2="BackgroundImageFix" result="effect1_dropShadow_1_1079"/>
<feBlend mode="normal" in="SourceGraphic" in2="effect1_dropShadow_1_1079" result="shape"/>
</filter>
<filter id="filter1_d_1_1079" x="11" y="12" width="18" height="18" filterUnits="userSpaceOnUse" color-interpolation-filters="sRGB">
<feFlood flood-opacity="0" result="BackgroundImageFix"/>
<feColorMatrix in="SourceAlpha" type="matrix" values="0 0 0 0 0 0 0 0 0 0 0 0 0 0 0 0 0 0 127 0" result="hardAlpha"/>
<feOffset dy="1"/>
<feGaussianBlur stdDeviation="1.5"/>
<feComposite in2="hardAlpha" operator="out"/>
<feColorMatrix type="matrix" values="0 0 0 0 1 0 0 0 0 0.815755 0 0 0 0 0.309082 0 0 0 0.6 0"/>
<feBlend mode="normal" in2="BackgroundImageFix" result="effect1_dropShadow_1_1079"/>
<feBlend mode="normal" in="SourceGraphic" in2="effect1_dropShadow_1_1079" result="shape"/>
</filter>
<filter id="filter2_d_1_1079" x="32.1186" y="12.4105" width="76.0622" height="16.7585" filterUnits="userSpaceOnUse" color-interpolation-filters="sRGB">
<feFlood flood-opacity="0" result="BackgroundImageFix"/>
<feColorMatrix in="SourceAlpha" type="matrix" values="0 0 0 0 0 0 0 0 0 0 0 0 0 0 0 0 0 0 127 0" result="hardAlpha"/>
<feOffset dy="1"/>
<feGaussianBlur stdDeviation="1.5"/>
<feComposite in2="hardAlpha" operator="out"/>
<feColorMatrix type="matrix" values="0 0 0 0 1 0 0 0 0 0.815755 0 0 0 0 0.309082 0 0 0 0.6 0"/>
<feBlend mode="normal" in2="BackgroundImageFix" result="effect1_dropShadow_1_1079"/>
<feBlend mode="normal" in="SourceGraphic" in2="effect1_dropShadow_1_1079" result="shape"/>
</filter>
<linearGradient id="paint0_linear_1_1079" x1="35.1811" y1="4" x2="77.1408" y2="29.8967" gradientUnits="userSpaceOnUse">
<stop stop-color="#263238"/>
<stop offset="1" stop-color="#2F4B59"/>
</linearGradient>
</defs>
</svg>
