<svg width="118" height="44" viewBox="0 0 118 44" fill="none" xmlns="http://www.w3.org/2000/svg">
<g filter="url(#filter0_d_1_1076)">
<rect x="6" y="4" width="106" height="32" rx="5" fill="url(#paint0_linear_1_1076)" shape-rendering="crispEdges"/>
<rect x="6.25" y="4.25" width="105.5" height="31.5" rx="4.75" stroke="#FFBB00" stroke-opacity="0.5" stroke-width="0.5" shape-rendering="crispEdges"/>
<g filter="url(#filter1_d_1_1076)">
<path d="M19 19.759L17.9375 20.5788C17.875 20.6313 17.8125 20.634 17.75 20.587C17.6875 20.5399 17.6667 20.4793 17.6875 20.4053L18.0938 19.081L17 18.1982C16.9479 18.1456 16.9323 18.0853 16.9531 18.0172C16.974 17.9491 17.0208 17.9148 17.0938 17.9144H18.4375L18.8438 16.6216C18.8646 16.548 18.9167 16.5112 19 16.5112C19.0833 16.5112 19.1354 16.548 19.1562 16.6216L19.5625 17.9144H20.8906C20.9635 17.9144 21.0131 17.9486 21.0394 18.0172C21.0656 18.0857 21.0525 18.146 21 18.1982L19.8906 19.081L20.2969 20.4053C20.3177 20.4789 20.2969 20.5395 20.2344 20.587C20.1719 20.6345 20.1094 20.6317 20.0469 20.5788L19 19.759ZM19 25.4819L16.0781 26.4593C15.8698 26.5329 15.6796 26.5066 15.5075 26.3805C15.3354 26.2544 15.2496 26.0862 15.25 25.876V21.8715C14.8542 21.4301 14.5469 20.9256 14.3281 20.358C14.1094 19.7905 14 19.1861 14 18.545C14 17.1366 14.4844 15.9437 15.4531 14.9662C16.4219 13.9887 17.6042 13.5 19 13.5C20.3958 13.5 21.5781 13.9887 22.5469 14.9662C23.5156 15.9437 24 17.1366 24 18.545C24 19.1861 23.8906 19.7905 23.6719 20.358C23.4531 20.9256 23.1458 21.4301 22.75 21.8715V25.876C22.75 26.0862 22.664 26.2544 22.4919 26.3805C22.3198 26.5066 22.1298 26.5329 21.9219 26.4593L19 25.4819ZM19 22.3287C20.0417 22.3287 20.9271 21.9609 21.6562 21.2252C22.3854 20.4894 22.75 19.596 22.75 18.545C22.75 17.494 22.3854 16.6006 21.6562 15.8648C20.9271 15.1291 20.0417 14.7612 19 14.7612C17.9583 14.7612 17.0729 15.1291 16.3438 15.8648C15.6146 16.6006 15.25 17.494 15.25 18.545C15.25 19.596 15.6146 20.4894 16.3438 21.2252C17.0729 21.9609 17.9583 22.3287 19 22.3287ZM16.5 24.867L19 24.2206L21.5 24.867V22.9121C21.1354 23.1223 20.7421 23.2879 20.32 23.409C19.8979 23.5301 19.4579 23.5904 19 23.59C18.5417 23.59 18.1015 23.5295 17.6794 23.4084C17.2573 23.2873 16.8642 23.1221 16.5 22.9127V24.867Z" fill="#FFBB00"/>
</g>
<g filter="url(#filter2_d_1_1076)">
<path d="M33.1186 25V14.8182H36.7479C37.54 14.8182 38.1963 14.9624 38.7166 15.2507C39.237 15.5391 39.6264 15.9335 39.8849 16.4339C40.1435 16.9311 40.2727 17.4912 40.2727 18.1143C40.2727 18.7408 40.1418 19.3042 39.88 19.8047C39.6214 20.3018 39.2304 20.6963 38.7067 20.9879C38.1863 21.2763 37.5317 21.4205 36.7429 21.4205H34.2472V20.1179H36.6037C37.1042 20.1179 37.5102 20.0317 37.8217 19.8594C38.1333 19.6837 38.362 19.4451 38.5078 19.1435C38.6536 18.8419 38.7266 18.4988 38.7266 18.1143C38.7266 17.7299 38.6536 17.3885 38.5078 17.0902C38.362 16.7919 38.1316 16.5582 37.8168 16.3892C37.5052 16.2202 37.0942 16.1357 36.5838 16.1357H34.6548V25H33.1186ZM43.9544 25V17.3636H45.3912V18.5767H45.4707C45.6099 18.1657 45.8552 17.8426 46.2065 17.6072C46.5611 17.3686 46.9622 17.2493 47.4096 17.2493C47.5024 17.2493 47.6118 17.2526 47.7377 17.2592C47.867 17.2659 47.9681 17.2741 48.041 17.2841V18.706C47.9814 18.6894 47.8753 18.6712 47.7228 18.6513C47.5704 18.6281 47.4179 18.6165 47.2654 18.6165C46.9141 18.6165 46.6009 18.6911 46.3258 18.8402C46.054 18.986 45.8386 19.1899 45.6795 19.4517C45.5204 19.7102 45.4409 20.0052 45.4409 20.3366V25H43.9544ZM54.3452 25.1541C53.5928 25.1541 52.9448 24.9934 52.4013 24.6719C51.861 24.3471 51.4434 23.8913 51.1484 23.3047C50.8568 22.7147 50.7109 22.0237 50.7109 21.2315C50.7109 20.4493 50.8568 19.7599 51.1484 19.1634C51.4434 18.5668 51.8544 18.1011 52.3814 17.7663C52.9117 17.4316 53.5315 17.2642 54.2408 17.2642C54.6716 17.2642 55.0893 17.3355 55.4936 17.478C55.898 17.6205 56.2609 17.8442 56.5824 18.1491C56.9039 18.4541 57.1574 18.8501 57.343 19.3374C57.5286 19.8213 57.6214 20.4096 57.6214 21.1023V21.6293H51.5511V20.5156H56.1648C56.1648 20.1245 56.0852 19.7782 55.9261 19.4766C55.767 19.1716 55.5433 18.9313 55.255 18.7557C54.9699 18.58 54.6352 18.4922 54.2507 18.4922C53.8331 18.4922 53.4685 18.5949 53.157 18.8004C52.8487 19.0026 52.6101 19.2678 52.4411 19.5959C52.2753 19.9207 52.1925 20.2737 52.1925 20.6548V21.5249C52.1925 22.0353 52.282 22.4695 52.4609 22.8274C52.6432 23.1854 52.8968 23.4588 53.2216 23.6477C53.5464 23.8333 53.9259 23.9261 54.3601 23.9261C54.6418 23.9261 54.8987 23.8864 55.1307 23.8068C55.3627 23.724 55.5632 23.6013 55.7322 23.4389C55.9013 23.2765 56.0305 23.076 56.12 22.8374L57.527 23.0909C57.4143 23.5052 57.2121 23.8681 56.9205 24.1797C56.6321 24.4879 56.2692 24.7282 55.8317 24.9006C55.3975 25.0696 54.902 25.1541 54.3452 25.1541ZM61.2708 25V17.3636H62.6976V18.6065H62.7921C62.9512 18.1856 63.2114 17.8575 63.5726 17.6222C63.9339 17.3835 64.3664 17.2642 64.8702 17.2642C65.3806 17.2642 65.8082 17.3835 66.1529 17.6222C66.5009 17.8608 66.7578 18.1889 66.9235 18.6065H67.003C67.1853 18.1989 67.4753 17.8741 67.873 17.6321C68.2708 17.3868 68.7447 17.2642 69.2949 17.2642C69.9876 17.2642 70.5527 17.4813 70.9902 17.9155C71.431 18.3497 71.6515 19.0043 71.6515 19.8793V25H70.165V20.0185C70.165 19.5014 70.0241 19.1269 69.7424 18.8949C69.4606 18.6629 69.1242 18.5469 68.7331 18.5469C68.2492 18.5469 67.873 18.696 67.6046 18.9943C67.3361 19.2893 67.2019 19.6688 67.2019 20.1328V25H65.7203V19.924C65.7203 19.5097 65.5911 19.1766 65.3326 18.9247C65.074 18.6728 64.7376 18.5469 64.3233 18.5469C64.0416 18.5469 63.7814 18.6214 63.5428 18.7706C63.3075 18.9164 63.1169 19.1203 62.9711 19.3821C62.8285 19.6439 62.7573 19.9472 62.7573 20.2919V25H61.2708ZM75.6438 25V17.3636H77.1303V25H75.6438ZM76.3945 16.1854C76.136 16.1854 75.9139 16.0992 75.7283 15.9268C75.546 15.7512 75.4549 15.5424 75.4549 15.3004C75.4549 15.0552 75.546 14.8464 75.7283 14.674C75.9139 14.4983 76.136 14.4105 76.3945 14.4105C76.6531 14.4105 76.8735 14.4983 77.0558 14.674C77.2414 14.8464 77.3342 15.0552 77.3342 15.3004C77.3342 15.5424 77.2414 15.7512 77.0558 15.9268C76.8735 16.0992 76.6531 16.1854 76.3945 16.1854ZM85.9675 21.8331V17.3636H87.459V25H85.9973V23.6776H85.9178C85.7421 24.0852 85.4604 24.425 85.0726 24.6967C84.6882 24.9652 84.2092 25.0994 83.6358 25.0994C83.1453 25.0994 82.7111 24.9917 82.3333 24.7763C81.9587 24.5575 81.6638 24.2344 81.4483 23.8068C81.2362 23.3793 81.1301 22.8506 81.1301 22.2209V17.3636H82.6167V22.0419C82.6167 22.5623 82.7608 22.9766 83.0492 23.2848C83.3375 23.593 83.7121 23.7472 84.1728 23.7472C84.4512 23.7472 84.7279 23.6776 85.003 23.5384C85.2814 23.3991 85.5118 23.1887 85.6941 22.907C85.8797 22.6252 85.9708 22.2673 85.9675 21.8331ZM91.4563 25V17.3636H92.8832V18.6065H92.9776C93.1367 18.1856 93.3969 17.8575 93.7582 17.6222C94.1194 17.3835 94.552 17.2642 95.0558 17.2642C95.5662 17.2642 95.9937 17.3835 96.3384 17.6222C96.6864 17.8608 96.9433 18.1889 97.109 18.6065H97.1886C97.3709 18.1989 97.6609 17.8741 98.0586 17.6321C98.4563 17.3868 98.9303 17.2642 99.4805 17.2642C100.173 17.2642 100.738 17.4813 101.176 17.9155C101.617 18.3497 101.837 19.0043 101.837 19.8793V25H100.35V20.0185C100.35 19.5014 100.21 19.1269 99.9279 18.8949C99.6462 18.6629 99.3098 18.5469 98.9187 18.5469C98.4348 18.5469 98.0586 18.696 97.7901 18.9943C97.5217 19.2893 97.3874 19.6688 97.3874 20.1328V25H95.9059V19.924C95.9059 19.5097 95.7766 19.1766 95.5181 18.9247C95.2596 18.6728 94.9232 18.5469 94.5089 18.5469C94.2272 18.5469 93.967 18.6214 93.7283 18.7706C93.493 18.9164 93.3024 19.1203 93.1566 19.3821C93.0141 19.6439 92.9428 19.9472 92.9428 20.2919V25H91.4563Z" fill="#FFBB00"/>
</g>
</g>
<defs>
<filter id="filter0_d_1_1076" x="0" y="0" width="118" height="44" filterUnits="userSpaceOnUse" color-interpolation-filters="sRGB">
<feFlood flood-opacity="0" result="BackgroundImageFix"/>
<feColorMatrix in="SourceAlpha" type="matrix" values="0 0 0 0 0 0 0 0 0 0 0 0 0 0 0 0 0 0 127 0" result="hardAlpha"/>
<feOffset dy="2"/>
<feGaussianBlur stdDeviation="3"/>
<feComposite in2="hardAlpha" operator="out"/>
<feColorMatrix type="matrix" values="0 0 0 0 0 0 0 0 0 0 0 0 0 0 0 0 0 0 0.08 0"/>
<feBlend mode="normal" in2="BackgroundImageFix" result="effect1_dropShadow_1_1076"/>
<feBlend mode="normal" in="SourceGraphic" in2="effect1_dropShadow_1_1076" result="shape"/>
</filter>
<filter id="filter1_d_1_1076" x="11" y="11.5" width="16" height="19" filterUnits="userSpaceOnUse" color-interpolation-filters="sRGB">
<feFlood flood-opacity="0" result="BackgroundImageFix"/>
<feColorMatrix in="SourceAlpha" type="matrix" values="0 0 0 0 0 0 0 0 0 0 0 0 0 0 0 0 0 0 127 0" result="hardAlpha"/>
<feOffset dy="1"/>
<feGaussianBlur stdDeviation="1.5"/>
<feComposite in2="hardAlpha" operator="out"/>
<feColorMatrix type="matrix" values="0 0 0 0 1 0 0 0 0 0.815755 0 0 0 0 0.309082 0 0 0 0.6 0"/>
<feBlend mode="normal" in2="BackgroundImageFix" result="effect1_dropShadow_1_1076"/>
<feBlend mode="normal" in="SourceGraphic" in2="effect1_dropShadow_1_1076" result="shape"/>
</filter>
<filter id="filter2_d_1_1076" x="30.1186" y="12.4105" width="74.7184" height="16.7436" filterUnits="userSpaceOnUse" color-interpolation-filters="sRGB">
<feFlood flood-opacity="0" result="BackgroundImageFix"/>
<feColorMatrix in="SourceAlpha" type="matrix" values="0 0 0 0 0 0 0 0 0 0 0 0 0 0 0 0 0 0 127 0" result="hardAlpha"/>
<feOffset dy="1"/>
<feGaussianBlur stdDeviation="1.5"/>
<feComposite in2="hardAlpha" operator="out"/>
<feColorMatrix type="matrix" values="0 0 0 0 1 0 0 0 0 0.815755 0 0 0 0 0.309082 0 0 0 0.6 0"/>
<feBlend mode="normal" in2="BackgroundImageFix" result="effect1_dropShadow_1_1076"/>
<feBlend mode="normal" in="SourceGraphic" in2="effect1_dropShadow_1_1076" result="shape"/>
</filter>
<linearGradient id="paint0_linear_1_1076" x1="34.378" y1="4" x2="75.8032" y2="28.8632" gradientUnits="userSpaceOnUse">
<stop stop-color="#263238"/>
<stop offset="1" stop-color="#2F4B59"/>
</linearGradient>
</defs>
</svg>
