<svg width="139" height="44" viewBox="0 0 139 44" fill="none" xmlns="http://www.w3.org/2000/svg">
<g filter="url(#filter0_d_1_1196)">
<rect x="6" y="4" width="127" height="32" rx="5" fill="url(#paint0_linear_1_1196)" shape-rendering="crispEdges"/>
<rect x="6.25" y="4.25" width="126.5" height="31.5" rx="4.75" stroke="#FFBB00" stroke-opacity="0.5" stroke-width="0.5" shape-rendering="crispEdges"/>
<g filter="url(#filter1_d_1_1196)">
<path d="M19.5907 13.9004L19.5906 13.9004C18.9665 13.9616 18.5736 14.0405 18.0732 14.2056C16.0639 14.8688 14.5459 16.5328 14.0506 18.617C13.9322 19.1106 13.9 19.4047 13.9 19.9979C13.9 20.6853 13.9569 21.1045 14.1367 21.7179C14.168 21.828 14.2258 21.9989 14.2784 22.1447C14.3048 22.218 14.3303 22.286 14.3508 22.338C14.361 22.3638 14.3704 22.3864 14.3782 22.404C14.382 22.4128 14.386 22.4212 14.3897 22.4285L14.3898 22.4286C14.3922 22.4335 14.3987 22.446 14.4081 22.4573L14.4139 22.4643L14.4142 22.464C14.4421 22.4919 14.4757 22.4934 14.4809 22.4936C14.4811 22.4936 14.4812 22.4936 14.4813 22.4936C14.4916 22.4942 14.5001 22.4931 14.5043 22.4925C14.5134 22.4912 14.522 22.489 14.5279 22.4873C14.5408 22.4837 14.5562 22.4785 14.5719 22.4728C14.6039 22.4612 14.6449 22.4449 14.6854 22.4279C14.7261 22.4108 14.7677 22.3925 14.8012 22.3765C14.8179 22.3686 14.8335 22.3609 14.8463 22.3539C14.8527 22.3504 14.8594 22.3466 14.8655 22.3427C14.8696 22.3401 14.878 22.3346 14.8866 22.3268C14.9122 22.3038 14.9188 22.2754 14.9209 22.2644C14.9236 22.2499 14.9233 22.2368 14.9227 22.228C14.9216 22.2099 14.9177 22.1908 14.9134 22.1738C14.9047 22.1388 14.8902 22.0966 14.8733 22.055L14.8727 22.0535L14.8727 22.0535C14.7931 21.8662 14.6735 21.4842 14.6187 21.2507C14.5116 20.7794 14.4879 20.5567 14.4903 19.9741C14.4927 19.475 14.4999 19.3723 14.5542 19.0701L14.5542 19.07C14.8092 17.6424 15.5521 16.4308 16.7026 15.5686L16.7026 15.5685C18.5572 14.1782 21.1196 14.1091 23.0505 15.3995L23.0506 15.3996C23.2092 15.5053 23.3456 15.6037 23.4386 15.6773C23.4578 15.6924 23.4747 15.7062 23.4893 15.7185C23.446 15.7487 23.3905 15.787 23.3308 15.8279L23.3305 15.8281C23.2036 15.9159 23.1119 15.9859 23.0622 16.0551C23.0348 16.0932 23.0167 16.1353 23.0138 16.1831C23.0109 16.2286 23.0225 16.2699 23.0374 16.3061C23.0485 16.3351 23.0648 16.3628 23.0819 16.3854C23.0964 16.4044 23.1214 16.4333 23.155 16.4491C23.1652 16.4541 23.1775 16.4586 23.185 16.4613L23.1855 16.4615C23.1981 16.4661 23.2147 16.4719 23.2344 16.4786C23.274 16.4921 23.3283 16.51 23.3932 16.531C23.5232 16.573 23.6969 16.6277 23.8839 16.6848C23.884 16.6848 23.8841 16.6848 23.8842 16.6849L23.9134 16.5892C24.6432 16.8171 24.728 16.8292 24.8032 16.725L19.5907 13.9004ZM19.5907 13.9004C19.698 13.8899 19.9438 13.8928 20.19 13.9021C20.4378 13.9115 20.6984 13.928 20.8381 13.9469L20.8386 13.947C21.9326 14.0997 23.0289 14.5749 23.8487 15.2539L23.8491 15.2543C23.9004 15.2972 23.9483 15.3356 23.9842 15.363C23.9877 15.3657 23.991 15.3682 23.9942 15.3706M19.5907 13.9004L24.8976 15.0682C24.8673 15.0358 24.8299 15.0039 24.7808 14.9868C24.7294 14.969 24.6775 14.9716 24.6257 14.9862C24.5315 15.0128 24.413 15.0875 24.2495 15.2001L24.2493 15.2002C24.1676 15.2567 24.0914 15.3077 24.035 15.3444C24.0197 15.3543 24.0061 15.3631 23.9942 15.3706M24.9638 15.932L24.9638 15.9321C24.9565 16.2583 24.951 16.4469 24.9423 16.5605C24.9338 16.6706 24.9217 16.7319 24.8843 16.7835L24.8638 15.9298L24.9638 15.932ZM24.9638 15.932L24.9807 15.1975L24.9817 15.156L24.953 15.126L24.8981 15.0688L24.9638 15.932ZM23.9942 15.3706C24.0075 15.3807 24.0182 15.3884 24.0258 15.3937L24.0314 15.3973C24.0328 15.3983 24.0334 15.3986 24.0334 15.3986L24.0322 15.3979L24.0281 15.396C24.0264 15.3953 24.0228 15.3938 24.018 15.3924C24.0142 15.3913 24.0042 15.3885 23.991 15.3885C23.9795 15.3885 23.9707 15.3906 23.9673 15.3914C23.963 15.3925 23.9597 15.3936 23.9579 15.3943C23.9561 15.395 23.9546 15.3956 23.9534 15.3961C23.9523 15.3966 23.9515 15.3969 23.9512 15.3971C23.9498 15.3977 23.9496 15.3979 23.9513 15.397C23.9544 15.3952 23.9598 15.392 23.9679 15.3871C23.9752 15.3826 23.9841 15.3771 23.9942 15.3706ZM23.975 16.0959L24.1279 16.1448L24.1281 16.1448L24.3595 16.2182L24.3689 16.0995C24.3689 16.0994 24.3689 16.0993 24.3689 16.0992C24.3759 16.0031 24.3802 15.8947 24.3812 15.8216L24.1659 15.9665L24.1657 15.9667L23.975 16.0959Z" fill="#FFBB00" stroke="#FFBB00" stroke-width="0.2"/>
<path d="M24.9848 17.0051L24.9847 17.0052L24.8222 17.1022L24.739 17.1519L24.7861 17.2366L24.8828 17.4107C24.8828 17.4107 24.8829 17.4108 24.8829 17.4109C25.072 17.7561 25.2847 18.3243 25.3822 18.7453C25.4869 19.2023 25.5129 19.442 25.5129 19.9979C25.5129 20.5752 25.4846 20.8168 25.3655 21.3052L25.3654 21.3055C24.8131 23.5934 22.8534 25.2796 20.5004 25.4963L20.5004 25.4963C18.8998 25.644 17.2399 25.0526 16.149 23.945L16.1489 23.945L16.0572 23.852L16.1859 23.7667C16.186 23.7666 16.1861 23.7666 16.1861 23.7665C16.3355 23.6686 16.4322 23.6017 16.4906 23.5461C16.5211 23.517 16.5462 23.4865 16.5629 23.4511C16.5802 23.4142 16.585 23.3789 16.585 23.3461C16.585 23.304 16.5815 23.251 16.5494 23.1996C16.5183 23.1498 16.4691 23.115 16.4099 23.085C16.2944 23.0265 16.0868 22.9606 15.7263 22.8504L15.7263 22.8504C15.5389 22.7932 15.3592 22.7408 15.2206 22.7026C15.1513 22.6836 15.0917 22.6679 15.0462 22.6569C15.0236 22.6514 15.0036 22.6469 14.9874 22.6437C14.9743 22.6411 14.9549 22.6375 14.9382 22.6375C14.8924 22.6375 14.8265 22.6398 14.7706 22.6822C14.714 22.7251 14.6888 22.7923 14.6739 22.8647C14.6445 23.0082 14.6394 23.2683 14.6346 23.7256L14.6346 23.7256L14.7346 23.7267L14.6346 23.7256L24.9848 17.0051ZM24.9848 17.0051C25.0322 16.9769 25.0789 16.9525 25.1165 16.9359C25.1349 16.9278 25.154 16.9203 25.1714 16.9155C25.1796 16.9133 25.192 16.9104 25.2058 16.9097C25.2127 16.9093 25.2237 16.9093 25.2365 16.9121C25.2489 16.9148 25.2698 16.9217 25.2885 16.9404L25.2885 16.9403L25.2909 16.9428C25.3003 16.9529 25.3079 16.9649 25.3116 16.9709C25.3167 16.979 25.3223 16.9887 25.3282 16.9991C25.3399 17.0201 25.3544 17.0474 25.3705 17.0789C25.4028 17.1419 25.4434 17.2242 25.4853 17.3119C25.5687 17.4862 25.6598 17.6862 25.7037 17.7991M24.9848 17.0051L15.7317 24.3658L15.7319 24.366C16.2215 24.8383 16.6906 25.1717 17.2893 25.4674C19.0168 26.3225 21.0184 26.3201 22.7412 25.455C24.5312 24.5575 25.7483 22.8589 26.0561 20.8373L26.0562 20.8368C26.0827 20.6562 26.0972 20.3406 26.0996 20.033C26.1021 19.7257 26.0925 19.4149 26.0683 19.2445L26.0683 19.2444C25.9923 18.7119 25.8645 18.2121 25.7037 17.7991M25.7037 17.7991L25.6105 17.8354M25.7037 17.7991C25.7037 17.7991 25.7037 17.7991 25.7037 17.7991L25.6105 17.8354M25.6105 17.8354C25.7681 18.2402 25.8942 18.7324 25.9693 19.2585L25.6105 17.8354ZM14.7228 24.4907C14.7226 24.4906 14.7224 24.4904 14.7222 24.4902L14.7855 24.4128L14.7234 24.4912L14.7228 24.4907ZM15.5242 23.4051L15.5238 23.405C15.407 23.3679 15.2915 23.334 15.2274 23.3171V23.5449V23.7104L15.3933 23.5981C15.4791 23.5385 15.5608 23.4817 15.6237 23.437C15.5962 23.4279 15.5633 23.4174 15.5242 23.4051ZM15.5662 24.0661L15.6228 24.1486L15.5553 24.1948L15.4966 24.1379L15.5662 24.0661Z" fill="#FFBB00" stroke="#FFBB00" stroke-width="0.2"/>
<mask id="path-5-outside-1_1_1196" maskUnits="userSpaceOnUse" x="14.7335" y="16.9375" width="10" height="6" fill="black">
<rect fill="white" x="14.7335" y="16.9375" width="10" height="6"/>
<path d="M17.2487 17.8984C16.9893 17.9808 16.7978 18.1457 16.6863 18.3857C16.6281 18.5093 16.6184 18.5627 16.6184 18.7372C16.6184 18.9239 16.6256 18.9603 16.6984 19.1082C16.7444 19.2003 16.776 19.2755 16.7711 19.2803C16.7687 19.2827 16.7153 19.307 16.6547 19.3312C16.4947 19.4015 16.3032 19.6028 16.2111 19.7967L16.1335 19.9616L16.1262 20.6574L16.1189 21.3556H16.3129H16.5093V20.735C16.5093 20.318 16.519 20.0804 16.5384 20.0125C16.5772 19.8791 16.7784 19.6779 16.9117 19.6391C17.0475 19.6003 17.9106 19.6003 18.0464 19.6391C18.1797 19.6779 18.3809 19.8791 18.4197 20.0125C18.4755 20.1992 18.4876 20.1919 18.1239 20.1919C17.85 20.1919 17.7918 20.1992 17.7481 20.2331C17.7118 20.2646 17.6609 20.4077 17.5615 20.7495C17.4887 21.0089 17.4063 21.295 17.3796 21.3847L17.3311 21.5496H16.5335H15.7335V21.7435V21.9375H20.0004H24.2674V21.7435V21.5496H23.9159C23.7219 21.5496 23.5643 21.5423 23.5643 21.5302C23.5643 21.5205 23.6346 21.2659 23.7219 20.9629C23.8092 20.6598 23.8795 20.3883 23.8795 20.3616C23.8795 20.3325 23.8528 20.284 23.8189 20.2525C23.7607 20.1919 23.7534 20.1919 23.3388 20.1919H22.9146L22.9 20.061C22.8637 19.7749 22.6212 19.4403 22.3764 19.3312C22.3157 19.307 22.2624 19.2827 22.26 19.2803C22.2551 19.2755 22.2867 19.2003 22.3327 19.1082C22.4054 18.9603 22.4127 18.9239 22.4127 18.7372C22.4127 18.5627 22.403 18.5093 22.3448 18.3857C22.0248 17.6996 21.0793 17.6996 20.7593 18.3857C20.7011 18.5093 20.6914 18.5627 20.6914 18.7372C20.6914 18.9239 20.6987 18.9603 20.7714 19.1082C20.8175 19.2003 20.849 19.2755 20.8441 19.2803C20.8417 19.2827 20.7884 19.307 20.7278 19.3312C20.5677 19.4015 20.3762 19.6028 20.2841 19.7967L20.2065 19.9616L20.1992 20.6574L20.192 21.3556H20.3859H20.5823V20.735C20.5823 20.318 20.592 20.0804 20.6114 20.0125C20.6502 19.8791 20.8514 19.6779 20.9847 19.6391C21.1205 19.6003 21.9836 19.6003 22.1194 19.6391C22.2527 19.6779 22.4539 19.8791 22.4927 20.0125C22.5485 20.1992 22.5606 20.1919 22.1969 20.1919C21.923 20.1919 21.8648 20.1992 21.8212 20.2331C21.7848 20.2646 21.7339 20.4077 21.6345 20.7495C21.5618 21.0089 21.4793 21.295 21.4527 21.3847L21.4042 21.5496H20.4489C19.9228 21.5496 19.4913 21.5423 19.4913 21.5302C19.4913 21.5205 19.5616 21.2659 19.6489 20.9629C19.7362 20.6598 19.8065 20.3883 19.8065 20.3616C19.8065 20.3325 19.7798 20.284 19.7459 20.2525C19.6877 20.1919 19.6804 20.1919 19.2658 20.1919H18.8416L18.827 20.061C18.7906 19.7749 18.5482 19.4403 18.3033 19.3312C18.2427 19.307 18.1894 19.2827 18.187 19.2803C18.1821 19.2755 18.2136 19.2003 18.2597 19.1082C18.3324 18.9603 18.3397 18.9239 18.3397 18.7372C18.3397 18.5627 18.33 18.5093 18.2718 18.3857C18.1991 18.2281 18.0754 18.0851 17.9373 17.9978C17.7481 17.8766 17.4548 17.8329 17.2487 17.8984ZM17.7554 18.3421C17.8888 18.4366 17.9518 18.5675 17.9518 18.7494C17.9518 19.0233 17.7651 19.21 17.4936 19.21C17.1493 19.21 16.9287 18.9239 17.016 18.5966C17.0499 18.473 17.1978 18.313 17.3142 18.279C17.4499 18.2378 17.6463 18.2645 17.7554 18.3421ZM21.8284 18.3421C21.9618 18.4366 22.0248 18.5675 22.0248 18.7494C22.0248 19.0233 21.8381 19.21 21.5666 19.21C21.2223 19.21 21.0017 18.9239 21.089 18.5966C21.1229 18.473 21.2708 18.313 21.3872 18.279C21.523 18.2378 21.7193 18.2645 21.8284 18.3421ZM19.3458 20.5992C19.3458 20.6162 19.2367 21.0089 19.1252 21.3847L19.0767 21.5496H18.4124C18.0464 21.5496 17.7457 21.5399 17.7457 21.5302C17.7457 21.5132 17.8548 21.1204 17.9663 20.7422L18.0148 20.5798H18.6791C19.0452 20.5798 19.3458 20.5895 19.3458 20.5992ZM23.4189 20.5992C23.4189 20.6162 23.3098 21.0089 23.1982 21.3847L23.1497 21.5496H22.4855C22.1194 21.5496 21.8187 21.5399 21.8187 21.5302C21.8187 21.5132 21.9278 21.1204 22.0394 20.7422L22.0878 20.5798H22.7521C23.1182 20.5798 23.4189 20.5895 23.4189 20.5992Z"/>
</mask>
<path d="M17.2487 17.8984C16.9893 17.9808 16.7978 18.1457 16.6863 18.3857C16.6281 18.5093 16.6184 18.5627 16.6184 18.7372C16.6184 18.9239 16.6256 18.9603 16.6984 19.1082C16.7444 19.2003 16.776 19.2755 16.7711 19.2803C16.7687 19.2827 16.7153 19.307 16.6547 19.3312C16.4947 19.4015 16.3032 19.6028 16.2111 19.7967L16.1335 19.9616L16.1262 20.6574L16.1189 21.3556H16.3129H16.5093V20.735C16.5093 20.318 16.519 20.0804 16.5384 20.0125C16.5772 19.8791 16.7784 19.6779 16.9117 19.6391C17.0475 19.6003 17.9106 19.6003 18.0464 19.6391C18.1797 19.6779 18.3809 19.8791 18.4197 20.0125C18.4755 20.1992 18.4876 20.1919 18.1239 20.1919C17.85 20.1919 17.7918 20.1992 17.7481 20.2331C17.7118 20.2646 17.6609 20.4077 17.5615 20.7495C17.4887 21.0089 17.4063 21.295 17.3796 21.3847L17.3311 21.5496H16.5335H15.7335V21.7435V21.9375H20.0004H24.2674V21.7435V21.5496H23.9159C23.7219 21.5496 23.5643 21.5423 23.5643 21.5302C23.5643 21.5205 23.6346 21.2659 23.7219 20.9629C23.8092 20.6598 23.8795 20.3883 23.8795 20.3616C23.8795 20.3325 23.8528 20.284 23.8189 20.2525C23.7607 20.1919 23.7534 20.1919 23.3388 20.1919H22.9146L22.9 20.061C22.8637 19.7749 22.6212 19.4403 22.3764 19.3312C22.3157 19.307 22.2624 19.2827 22.26 19.2803C22.2551 19.2755 22.2867 19.2003 22.3327 19.1082C22.4054 18.9603 22.4127 18.9239 22.4127 18.7372C22.4127 18.5627 22.403 18.5093 22.3448 18.3857C22.0248 17.6996 21.0793 17.6996 20.7593 18.3857C20.7011 18.5093 20.6914 18.5627 20.6914 18.7372C20.6914 18.9239 20.6987 18.9603 20.7714 19.1082C20.8175 19.2003 20.849 19.2755 20.8441 19.2803C20.8417 19.2827 20.7884 19.307 20.7278 19.3312C20.5677 19.4015 20.3762 19.6028 20.2841 19.7967L20.2065 19.9616L20.1992 20.6574L20.192 21.3556H20.3859H20.5823V20.735C20.5823 20.318 20.592 20.0804 20.6114 20.0125C20.6502 19.8791 20.8514 19.6779 20.9847 19.6391C21.1205 19.6003 21.9836 19.6003 22.1194 19.6391C22.2527 19.6779 22.4539 19.8791 22.4927 20.0125C22.5485 20.1992 22.5606 20.1919 22.1969 20.1919C21.923 20.1919 21.8648 20.1992 21.8212 20.2331C21.7848 20.2646 21.7339 20.4077 21.6345 20.7495C21.5618 21.0089 21.4793 21.295 21.4527 21.3847L21.4042 21.5496H20.4489C19.9228 21.5496 19.4913 21.5423 19.4913 21.5302C19.4913 21.5205 19.5616 21.2659 19.6489 20.9629C19.7362 20.6598 19.8065 20.3883 19.8065 20.3616C19.8065 20.3325 19.7798 20.284 19.7459 20.2525C19.6877 20.1919 19.6804 20.1919 19.2658 20.1919H18.8416L18.827 20.061C18.7906 19.7749 18.5482 19.4403 18.3033 19.3312C18.2427 19.307 18.1894 19.2827 18.187 19.2803C18.1821 19.2755 18.2136 19.2003 18.2597 19.1082C18.3324 18.9603 18.3397 18.9239 18.3397 18.7372C18.3397 18.5627 18.33 18.5093 18.2718 18.3857C18.1991 18.2281 18.0754 18.0851 17.9373 17.9978C17.7481 17.8766 17.4548 17.8329 17.2487 17.8984ZM17.7554 18.3421C17.8888 18.4366 17.9518 18.5675 17.9518 18.7494C17.9518 19.0233 17.7651 19.21 17.4936 19.21C17.1493 19.21 16.9287 18.9239 17.016 18.5966C17.0499 18.473 17.1978 18.313 17.3142 18.279C17.4499 18.2378 17.6463 18.2645 17.7554 18.3421ZM21.8284 18.3421C21.9618 18.4366 22.0248 18.5675 22.0248 18.7494C22.0248 19.0233 21.8381 19.21 21.5666 19.21C21.2223 19.21 21.0017 18.9239 21.089 18.5966C21.1229 18.473 21.2708 18.313 21.3872 18.279C21.523 18.2378 21.7193 18.2645 21.8284 18.3421ZM19.3458 20.5992C19.3458 20.6162 19.2367 21.0089 19.1252 21.3847L19.0767 21.5496H18.4124C18.0464 21.5496 17.7457 21.5399 17.7457 21.5302C17.7457 21.5132 17.8548 21.1204 17.9663 20.7422L18.0148 20.5798H18.6791C19.0452 20.5798 19.3458 20.5895 19.3458 20.5992ZM23.4189 20.5992C23.4189 20.6162 23.3098 21.0089 23.1982 21.3847L23.1497 21.5496H22.4855C22.1194 21.5496 21.8187 21.5399 21.8187 21.5302C21.8187 21.5132 21.9278 21.1204 22.0394 20.7422L22.0878 20.5798H22.7521C23.1182 20.5798 23.4189 20.5895 23.4189 20.5992Z" fill="#FFBB00"/>
<path d="M17.2487 17.8984C16.9893 17.9808 16.7978 18.1457 16.6863 18.3857C16.6281 18.5093 16.6184 18.5627 16.6184 18.7372C16.6184 18.9239 16.6256 18.9603 16.6984 19.1082C16.7444 19.2003 16.776 19.2755 16.7711 19.2803C16.7687 19.2827 16.7153 19.307 16.6547 19.3312C16.4947 19.4015 16.3032 19.6028 16.2111 19.7967L16.1335 19.9616L16.1262 20.6574L16.1189 21.3556H16.3129H16.5093V20.735C16.5093 20.318 16.519 20.0804 16.5384 20.0125C16.5772 19.8791 16.7784 19.6779 16.9117 19.6391C17.0475 19.6003 17.9106 19.6003 18.0464 19.6391C18.1797 19.6779 18.3809 19.8791 18.4197 20.0125C18.4755 20.1992 18.4876 20.1919 18.1239 20.1919C17.85 20.1919 17.7918 20.1992 17.7481 20.2331C17.7118 20.2646 17.6609 20.4077 17.5615 20.7495C17.4887 21.0089 17.4063 21.295 17.3796 21.3847L17.3311 21.5496H16.5335H15.7335V21.7435V21.9375H20.0004H24.2674V21.7435V21.5496H23.9159C23.7219 21.5496 23.5643 21.5423 23.5643 21.5302C23.5643 21.5205 23.6346 21.2659 23.7219 20.9629C23.8092 20.6598 23.8795 20.3883 23.8795 20.3616C23.8795 20.3325 23.8528 20.284 23.8189 20.2525C23.7607 20.1919 23.7534 20.1919 23.3388 20.1919H22.9146L22.9 20.061C22.8637 19.7749 22.6212 19.4403 22.3764 19.3312C22.3157 19.307 22.2624 19.2827 22.26 19.2803C22.2551 19.2755 22.2867 19.2003 22.3327 19.1082C22.4054 18.9603 22.4127 18.9239 22.4127 18.7372C22.4127 18.5627 22.403 18.5093 22.3448 18.3857C22.0248 17.6996 21.0793 17.6996 20.7593 18.3857C20.7011 18.5093 20.6914 18.5627 20.6914 18.7372C20.6914 18.9239 20.6987 18.9603 20.7714 19.1082C20.8175 19.2003 20.849 19.2755 20.8441 19.2803C20.8417 19.2827 20.7884 19.307 20.7278 19.3312C20.5677 19.4015 20.3762 19.6028 20.2841 19.7967L20.2065 19.9616L20.1992 20.6574L20.192 21.3556H20.3859H20.5823V20.735C20.5823 20.318 20.592 20.0804 20.6114 20.0125C20.6502 19.8791 20.8514 19.6779 20.9847 19.6391C21.1205 19.6003 21.9836 19.6003 22.1194 19.6391C22.2527 19.6779 22.4539 19.8791 22.4927 20.0125C22.5485 20.1992 22.5606 20.1919 22.1969 20.1919C21.923 20.1919 21.8648 20.1992 21.8212 20.2331C21.7848 20.2646 21.7339 20.4077 21.6345 20.7495C21.5618 21.0089 21.4793 21.295 21.4527 21.3847L21.4042 21.5496H20.4489C19.9228 21.5496 19.4913 21.5423 19.4913 21.5302C19.4913 21.5205 19.5616 21.2659 19.6489 20.9629C19.7362 20.6598 19.8065 20.3883 19.8065 20.3616C19.8065 20.3325 19.7798 20.284 19.7459 20.2525C19.6877 20.1919 19.6804 20.1919 19.2658 20.1919H18.8416L18.827 20.061C18.7906 19.7749 18.5482 19.4403 18.3033 19.3312C18.2427 19.307 18.1894 19.2827 18.187 19.2803C18.1821 19.2755 18.2136 19.2003 18.2597 19.1082C18.3324 18.9603 18.3397 18.9239 18.3397 18.7372C18.3397 18.5627 18.33 18.5093 18.2718 18.3857C18.1991 18.2281 18.0754 18.0851 17.9373 17.9978C17.7481 17.8766 17.4548 17.8329 17.2487 17.8984ZM17.7554 18.3421C17.8888 18.4366 17.9518 18.5675 17.9518 18.7494C17.9518 19.0233 17.7651 19.21 17.4936 19.21C17.1493 19.21 16.9287 18.9239 17.016 18.5966C17.0499 18.473 17.1978 18.313 17.3142 18.279C17.4499 18.2378 17.6463 18.2645 17.7554 18.3421ZM21.8284 18.3421C21.9618 18.4366 22.0248 18.5675 22.0248 18.7494C22.0248 19.0233 21.8381 19.21 21.5666 19.21C21.2223 19.21 21.0017 18.9239 21.089 18.5966C21.1229 18.473 21.2708 18.313 21.3872 18.279C21.523 18.2378 21.7193 18.2645 21.8284 18.3421ZM19.3458 20.5992C19.3458 20.6162 19.2367 21.0089 19.1252 21.3847L19.0767 21.5496H18.4124C18.0464 21.5496 17.7457 21.5399 17.7457 21.5302C17.7457 21.5132 17.8548 21.1204 17.9663 20.7422L18.0148 20.5798H18.6791C19.0452 20.5798 19.3458 20.5895 19.3458 20.5992ZM23.4189 20.5992C23.4189 20.6162 23.3098 21.0089 23.1982 21.3847L23.1497 21.5496H22.4855C22.1194 21.5496 21.8187 21.5399 21.8187 21.5302C21.8187 21.5132 21.9278 21.1204 22.0394 20.7422L22.0878 20.5798H22.7521C23.1182 20.5798 23.4189 20.5895 23.4189 20.5992Z" stroke="#FFBB00" stroke-width="0.2" mask="url(#path-5-outside-1_1_1196)"/>
</g>
<g filter="url(#filter2_d_1_1196)">
<path d="M37.1122 25.5L34.2884 15.3182H35.9041L37.8878 23.2031H37.9822L40.0455 15.3182H41.6463L43.7095 23.2081H43.804L45.7827 15.3182H47.4034L44.5746 25.5H43.0284L40.8857 17.8736H40.8061L38.6634 25.5H37.1122ZM53.1495 25.6541C52.4336 25.6541 51.8088 25.4901 51.2752 25.1619C50.7416 24.8338 50.3273 24.3748 50.0323 23.7848C49.7373 23.1948 49.5898 22.5054 49.5898 21.7166C49.5898 20.9245 49.7373 20.2318 50.0323 19.6385C50.3273 19.0452 50.7416 18.5845 51.2752 18.2564C51.8088 17.9283 52.4336 17.7642 53.1495 17.7642C53.8654 17.7642 54.4902 17.9283 55.0238 18.2564C55.5574 18.5845 55.9717 19.0452 56.2667 19.6385C56.5617 20.2318 56.7092 20.9245 56.7092 21.7166C56.7092 22.5054 56.5617 23.1948 56.2667 23.7848C55.9717 24.3748 55.5574 24.8338 55.0238 25.1619C54.4902 25.4901 53.8654 25.6541 53.1495 25.6541ZM53.1545 24.4062C53.6185 24.4062 54.003 24.2836 54.3079 24.0384C54.6128 23.7931 54.8382 23.4666 54.984 23.0589C55.1332 22.6513 55.2077 22.2022 55.2077 21.7116C55.2077 21.2244 55.1332 20.777 54.984 20.3693C54.8382 19.9583 54.6128 19.6286 54.3079 19.38C54.003 19.1314 53.6185 19.0071 53.1545 19.0071C52.6871 19.0071 52.2994 19.1314 51.9911 19.38C51.6862 19.6286 51.4592 19.9583 51.31 20.3693C51.1642 20.777 51.0913 21.2244 51.0913 21.7116C51.0913 22.2022 51.1642 22.6513 51.31 23.0589C51.4592 23.4666 51.6862 23.7931 51.9911 24.0384C52.2994 24.2836 52.6871 24.4062 53.1545 24.4062ZM60.3684 25.5V17.8636H61.8052V19.0767H61.8848C62.024 18.6657 62.2692 18.3426 62.6206 18.1072C62.9752 17.8686 63.3762 17.7493 63.8237 17.7493C63.9165 17.7493 64.0259 17.7526 64.1518 17.7592C64.2811 17.7659 64.3822 17.7741 64.4551 17.7841V19.206C64.3954 19.1894 64.2894 19.1712 64.1369 19.1513C63.9844 19.1281 63.832 19.1165 63.6795 19.1165C63.3282 19.1165 63.015 19.1911 62.7399 19.3402C62.4681 19.486 62.2527 19.6899 62.0936 19.9517C61.9345 20.2102 61.8549 20.5052 61.8549 20.8366V25.5H60.3684ZM69.1087 22.9098L69.0987 21.0952H69.3572L72.3999 17.8636H74.1797L70.7095 21.5426H70.4759L69.1087 22.9098ZM67.7415 25.5V15.3182H69.228V25.5H67.7415ZM72.5639 25.5L69.8295 21.8707L70.8537 20.8317L74.3885 25.5H72.5639ZM83.2567 19.728L81.9094 19.9666C81.8531 19.7943 81.7636 19.6302 81.641 19.4744C81.5217 19.3187 81.3593 19.1911 81.1538 19.0916C80.9483 18.9922 80.6914 18.9425 80.3832 18.9425C79.9622 18.9425 79.6109 19.0369 79.3292 19.2259C79.0475 19.4115 78.9066 19.6518 78.9066 19.9467C78.9066 20.2019 79.0011 20.4074 79.19 20.5632C79.3789 20.719 79.6838 20.8466 80.1048 20.946L81.3178 21.2244C82.0205 21.3868 82.5442 21.6371 82.8888 21.9751C83.2335 22.3132 83.4059 22.7524 83.4059 23.2926C83.4059 23.75 83.2733 24.1577 83.0082 24.5156C82.7463 24.8703 82.3801 25.1487 81.9094 25.3509C81.4421 25.553 80.9002 25.6541 80.2837 25.6541C79.4286 25.6541 78.7309 25.4718 78.1907 25.1072C77.6504 24.7393 77.319 24.2173 77.1964 23.5412L78.6332 23.3224C78.7227 23.697 78.9066 23.9804 79.185 24.1726C79.4634 24.3615 79.8263 24.456 80.2738 24.456C80.761 24.456 81.1504 24.3549 81.4421 24.1527C81.7338 23.9472 81.8796 23.697 81.8796 23.402C81.8796 23.1634 81.7901 22.9628 81.6112 22.8004C81.4355 22.638 81.1654 22.5154 80.8008 22.4325L79.5082 22.1491C78.7956 21.9867 78.2686 21.7282 77.9272 21.3736C77.5891 21.0189 77.4201 20.5698 77.4201 20.0263C77.4201 19.5755 77.546 19.1811 77.7979 18.843C78.0498 18.505 78.3978 18.2415 78.842 18.0526C79.2861 17.8603 79.7949 17.7642 80.3683 17.7642C81.1935 17.7642 81.8432 17.9432 82.3171 18.3011C82.7911 18.6558 83.1043 19.1314 83.2567 19.728ZM87.0403 28.3636V17.8636H88.492V19.1016H88.6163C88.7025 18.9425 88.8268 18.7585 88.9892 18.5497C89.1516 18.3409 89.377 18.1586 89.6653 18.0028C89.9537 17.8438 90.3348 17.7642 90.8088 17.7642C91.4252 17.7642 91.9754 17.92 92.4593 18.2315C92.9432 18.5431 93.3227 18.9922 93.5978 19.5788C93.8762 20.1655 94.0154 20.8714 94.0154 21.6967C94.0154 22.522 93.8779 23.2296 93.6028 23.8196C93.3277 24.4062 92.9499 24.8587 92.4693 25.1768C91.9887 25.4917 91.4402 25.6491 90.8237 25.6491C90.3597 25.6491 89.9802 25.5713 89.6852 25.4155C89.3935 25.2597 89.1648 25.0774 88.9991 24.8686C88.8334 24.6598 88.7058 24.4742 88.6163 24.3118H88.5268V28.3636H87.0403ZM88.497 21.6818C88.497 22.2187 88.5749 22.6894 88.7306 23.0938C88.8864 23.4981 89.1118 23.8146 89.4068 24.0433C89.7018 24.2687 90.063 24.3814 90.4906 24.3814C90.9347 24.3814 91.3059 24.2637 91.6042 24.0284C91.9025 23.7898 92.1279 23.4666 92.2804 23.0589C92.4361 22.6513 92.514 22.1922 92.514 21.6818C92.514 21.178 92.4378 20.7256 92.2853 20.3246C92.1362 19.9235 91.9108 19.607 91.6092 19.375C91.3109 19.143 90.938 19.027 90.4906 19.027C90.0597 19.027 89.6951 19.138 89.3968 19.3601C89.1019 19.5821 88.8781 19.892 88.7257 20.2898C88.5732 20.6875 88.497 21.1515 88.497 21.6818ZM99.9032 25.669C99.4193 25.669 98.9818 25.5795 98.5907 25.4006C98.1996 25.2183 97.8897 24.9548 97.661 24.6101C97.4357 24.2654 97.323 23.8428 97.323 23.3423C97.323 22.9115 97.4058 22.5568 97.5716 22.2784C97.7373 22 97.961 21.7796 98.2427 21.6172C98.5244 21.4548 98.8393 21.3321 99.1873 21.2493C99.5353 21.1664 99.89 21.1035 100.251 21.0604C100.709 21.0073 101.08 20.9643 101.365 20.9311C101.65 20.8946 101.857 20.8366 101.986 20.7571C102.116 20.6776 102.18 20.5483 102.18 20.3693V20.3345C102.18 19.9003 102.058 19.5639 101.812 19.3253C101.57 19.0866 101.209 18.9673 100.729 18.9673C100.228 18.9673 99.8336 19.0784 99.5453 19.3004C99.2602 19.5192 99.063 19.7628 98.9537 20.0312L97.5566 19.7131C97.7224 19.2491 97.9643 18.8745 98.2825 18.5895C98.604 18.3011 98.9735 18.0923 99.3912 17.9631C99.8088 17.8305 100.248 17.7642 100.709 17.7642C101.014 17.7642 101.337 17.8007 101.678 17.8736C102.023 17.9432 102.344 18.0724 102.643 18.2614C102.944 18.4503 103.191 18.7204 103.383 19.0717C103.576 19.4197 103.672 19.8722 103.672 20.429V25.5H102.22V24.456H102.16C102.064 24.6482 101.92 24.8371 101.728 25.0227C101.536 25.2083 101.289 25.3625 100.987 25.4851C100.685 25.6077 100.324 25.669 99.9032 25.669ZM100.226 24.4759C100.637 24.4759 100.989 24.3946 101.28 24.2322C101.575 24.0698 101.799 23.8577 101.952 23.5959C102.107 23.3307 102.185 23.0473 102.185 22.7457V21.7614C102.132 21.8144 102.029 21.8641 101.877 21.9105C101.728 21.9536 101.557 21.9917 101.365 22.0249C101.173 22.0547 100.985 22.0829 100.803 22.1094C100.621 22.1326 100.468 22.1525 100.346 22.169C100.057 22.2055 99.7939 22.2668 99.5552 22.353C99.3199 22.4392 99.131 22.5634 98.9885 22.7259C98.8493 22.8849 98.7797 23.0971 98.7797 23.3622C98.7797 23.7301 98.9155 24.0085 99.1873 24.1974C99.4591 24.383 99.8055 24.4759 100.226 24.4759ZM110.868 25.6541C110.129 25.6541 109.493 25.4867 108.959 25.152C108.429 24.8139 108.021 24.3482 107.736 23.755C107.451 23.1617 107.309 22.4822 107.309 21.7166C107.309 20.9411 107.454 20.2566 107.746 19.6634C108.038 19.0668 108.449 18.6011 108.979 18.2663C109.509 17.9316 110.134 17.7642 110.853 17.7642C111.433 17.7642 111.95 17.8719 112.404 18.0874C112.859 18.2995 113.225 18.5978 113.503 18.9822C113.785 19.3667 113.952 19.8158 114.005 20.3295H112.559C112.479 19.9716 112.297 19.6634 112.012 19.4048C111.73 19.1463 111.352 19.017 110.878 19.017C110.464 19.017 110.101 19.1264 109.789 19.3452C109.481 19.5606 109.241 19.8688 109.069 20.2699C108.896 20.6676 108.81 21.1383 108.81 21.6818C108.81 22.2386 108.895 22.7192 109.064 23.1236C109.233 23.5279 109.471 23.8411 109.779 24.0632C110.091 24.2853 110.457 24.3963 110.878 24.3963C111.16 24.3963 111.415 24.3449 111.644 24.2422C111.876 24.1361 112.07 23.9853 112.225 23.7898C112.385 23.5942 112.496 23.3589 112.559 23.0838H114.005C113.952 23.5777 113.792 24.0185 113.523 24.4062C113.255 24.794 112.895 25.099 112.444 25.321C111.997 25.5431 111.471 25.6541 110.868 25.6541ZM120.886 25.6541C120.134 25.6541 119.486 25.4934 118.942 25.1719C118.402 24.8471 117.984 24.3913 117.689 23.8047C117.398 23.2147 117.252 22.5237 117.252 21.7315C117.252 20.9493 117.398 20.2599 117.689 19.6634C117.984 19.0668 118.395 18.6011 118.922 18.2663C119.453 17.9316 120.073 17.7642 120.782 17.7642C121.213 17.7642 121.63 17.8355 122.035 17.978C122.439 18.1205 122.802 18.3442 123.123 18.6491C123.445 18.9541 123.698 19.3501 123.884 19.8374C124.07 20.3213 124.162 20.9096 124.162 21.6023V22.1293H118.092V21.0156H122.706C122.706 20.6245 122.626 20.2782 122.467 19.9766C122.308 19.6716 122.084 19.4313 121.796 19.2557C121.511 19.08 121.176 18.9922 120.792 18.9922C120.374 18.9922 120.01 19.0949 119.698 19.3004C119.39 19.5026 119.151 19.7678 118.982 20.0959C118.816 20.4207 118.733 20.7737 118.733 21.1548V22.0249C118.733 22.5353 118.823 22.9695 119.002 23.3274C119.184 23.6854 119.438 23.9588 119.763 24.1477C120.087 24.3333 120.467 24.4261 120.901 24.4261C121.183 24.4261 121.44 24.3864 121.672 24.3068C121.904 24.224 122.104 24.1013 122.273 23.9389C122.442 23.7765 122.572 23.576 122.661 23.3374L124.068 23.5909C123.955 24.0052 123.753 24.3681 123.461 24.6797C123.173 24.9879 122.81 25.2282 122.373 25.4006C121.939 25.5696 121.443 25.6541 120.886 25.6541Z" fill="#FFBB00"/>
</g>
</g>
<defs>
<filter id="filter0_d_1_1196" x="0" y="0" width="139" height="44" filterUnits="userSpaceOnUse" color-interpolation-filters="sRGB">
<feFlood flood-opacity="0" result="BackgroundImageFix"/>
<feColorMatrix in="SourceAlpha" type="matrix" values="0 0 0 0 0 0 0 0 0 0 0 0 0 0 0 0 0 0 127 0" result="hardAlpha"/>
<feOffset dy="2"/>
<feGaussianBlur stdDeviation="3"/>
<feComposite in2="hardAlpha" operator="out"/>
<feColorMatrix type="matrix" values="0 0 0 0 0 0 0 0 0 0 0 0 0 0 0 0 0 0 0.08 0"/>
<feBlend mode="normal" in2="BackgroundImageFix" result="effect1_dropShadow_1_1196"/>
<feBlend mode="normal" in="SourceGraphic" in2="effect1_dropShadow_1_1196" result="shape"/>
</filter>
<filter id="filter1_d_1_1196" x="10.8" y="11.7938" width="18.4" height="18.4125" filterUnits="userSpaceOnUse" color-interpolation-filters="sRGB">
<feFlood flood-opacity="0" result="BackgroundImageFix"/>
<feColorMatrix in="SourceAlpha" type="matrix" values="0 0 0 0 0 0 0 0 0 0 0 0 0 0 0 0 0 0 127 0" result="hardAlpha"/>
<feOffset dy="1"/>
<feGaussianBlur stdDeviation="1.5"/>
<feComposite in2="hardAlpha" operator="out"/>
<feColorMatrix type="matrix" values="0 0 0 0 1 0 0 0 0 0.815755 0 0 0 0 0.309082 0 0 0 0.6 0"/>
<feBlend mode="normal" in2="BackgroundImageFix" result="effect1_dropShadow_1_1196"/>
<feBlend mode="normal" in="SourceGraphic" in2="effect1_dropShadow_1_1196" result="shape"/>
</filter>
<filter id="filter2_d_1_1196" x="31.2884" y="13.3182" width="95.8741" height="19.0455" filterUnits="userSpaceOnUse" color-interpolation-filters="sRGB">
<feFlood flood-opacity="0" result="BackgroundImageFix"/>
<feColorMatrix in="SourceAlpha" type="matrix" values="0 0 0 0 0 0 0 0 0 0 0 0 0 0 0 0 0 0 127 0" result="hardAlpha"/>
<feOffset dy="1"/>
<feGaussianBlur stdDeviation="1.5"/>
<feComposite in2="hardAlpha" operator="out"/>
<feColorMatrix type="matrix" values="0 0 0 0 1 0 0 0 0 0.815755 0 0 0 0 0.309082 0 0 0 0.6 0"/>
<feBlend mode="normal" in2="BackgroundImageFix" result="effect1_dropShadow_1_1196"/>
<feBlend mode="normal" in="SourceGraphic" in2="effect1_dropShadow_1_1196" result="shape"/>
</filter>
<linearGradient id="paint0_linear_1_1196" x1="40" y1="4" x2="84.5" y2="36" gradientUnits="userSpaceOnUse">
<stop stop-color="#263238"/>
<stop offset="1" stop-color="#2F4B59"/>
</linearGradient>
</defs>
</svg>
